<?xml version="1.0" encoding="UTF-8" standalone="no"?>
<!-- Created with Inkscape (http://www.inkscape.org/) -->

<svg
   width="431.0079mm"
   height="409.57315mm"
   viewBox="0 0 431.0079 409.57316"
   version="1.1"
   id="svg1"
   xml:space="preserve"
   xmlns="http://www.w3.org/2000/svg"
   xmlns:svg="http://www.w3.org/2000/svg"><defs
     id="defs1" /><g
     id="layer1"
     style="display:inline"
     transform="matrix(1.4015353,0,0,1.4522844,-169.36466,-73.437996)"><g
       id="g8"
       transform="translate(-5.4098625,0.15353979)"><path
         id="path14"
         style="fill:#d8d8d8"
         d="m 126.62882,50.41369 c -0.15283,0 -0.28358,0.122269 -0.37672,0.275435 0.24491,-0.0089 0.48952,-0.02394 0.73432,-0.03566 -0.0943,-0.134489 -0.21645,-0.239779 -0.3576,-0.239779 z m 88.47729,0.76016 c 0.0689,0.101884 0.19172,0.165882 0.42271,0.165882 0.23069,0 0.35355,-0.06335 0.42271,-0.165365 -0.28181,-9.9e-5 -0.56361,-4.33e-4 -0.84542,-5.17e-4 z m -38.09277,0.04082 c 0.0758,0.08219 0.20746,0.125057 0.41548,0.125057 0.1231,0 0.17894,-0.0399 0.25476,-0.0677 -0.21886,-0.01969 -0.44698,-0.03653 -0.67024,-0.05736 z m -37.35896,0.03876 c -0.16549,0.01207 -0.3307,0.0275 -0.49609,0.04082 0.061,0.01225 0.0881,0.04548 0.17053,0.04548 0.15728,0 0.24479,-0.04027 0.32556,-0.0863 z m 293.96449,27.967802 c -0.0278,0.02782 -0.0464,0.120811 -0.0527,0.274918 -0.0115,0.278915 0.0511,0.435186 0.13901,0.347266 0.0879,-0.08792 0.0971,-0.316472 0.0207,-0.507462 -0.0422,-0.105534 -0.0792,-0.14254 -0.10697,-0.114722 z m -167.6182,22.176938 c -2.5e-4,2.9e-4 -2.6e-4,0.001 -5.1e-4,0.001 5e-4,8.7e-4 0.001,0.002 0.002,0.003 -3.1e-4,-0.001 -10e-4,-0.002 -10e-4,-0.004 z m -39.48854,7.71426 v 5.2e-4 5.2e-4 c -0.22013,0.0845 -0.38639,0.36553 -0.36949,0.62476 v 5.2e-4 c 0.0288,0.44142 0.038,0.46736 0.15141,0.008 0.0666,-0.25466 0.28486,-0.46715 0.48524,-0.46715 0.20038,0 0.48574,0.21249 0.63407,0.46715 0.14833,0.25469 0.27402,0.32686 0.27802,0.16278 0.0125,-0.4634 -0.73426,-0.96761 -1.17925,-0.79685 z m 77.433,0.95447 c -1.2e-4,0.0109 -0.004,5.4e-4 -0.004,0.0103 0,0.01 0.004,-0.001 0.004,0.009 2.4e-4,-0.006 2.6e-4,-0.0127 5.1e-4,-0.0191 z m 128.57303,3.0334 c -0.003,1.7e-4 -0.006,3.5e-4 -0.008,5.2e-4 0.003,5.5e-4 0.006,0.001 0.008,0.002 z M 301.2502,113.122 c -0.14385,0.0889 -0.26148,0.27338 -0.26148,0.41031 0,0.38059 0.18998,0.29713 0.36587,-0.16123 0.0904,-0.23547 0.0456,-0.34178 -0.10439,-0.24908 z m -21.97902,0.85834 c -4e-4,0.001 -0.001,0.003 -0.002,0.004 0.0245,0.003 0.0489,0.007 0.0734,0.0103 -8.1e-4,-8.1e-4 -10e-4,-0.002 -0.002,-0.003 -0.0183,-0.0183 -0.0481,0.004 -0.0693,-0.0109 z m -51.50332,0.10697 c -0.0425,-0.009 -0.057,0.074 -0.0605,0.24598 -0.004,0.23041 0.0715,0.49832 0.16847,0.59532 0.3228,0.32274 0.40529,-0.0413 0.1204,-0.53124 -0.11532,-0.19825 -0.1859,-0.30064 -0.22841,-0.31006 z m 76.22326,0.51057 c 0.019,0.0574 0.0404,0.11696 0.0925,0.15037 -0.0269,-0.0437 -0.0639,-0.10345 -0.0925,-0.15037 z m -4.86275,3.28507 c 0,-0.14552 -0.11525,-0.086 -0.25632,0.13229 -0.14106,0.21828 -0.25631,0.51594 -0.25631,0.66146 0,0.14553 0.11525,0.086 0.25631,-0.1323 0.14107,-0.21822 0.25632,-0.51592 0.25632,-0.66145 z m 30.7852,9.49916 c -0.0167,0.011 -0.0377,0.0181 -0.0527,0.0305 -0.006,0.005 0.0136,0.0137 0.0109,0.0217 -0.007,0.0193 -0.0239,0.0329 -0.0357,0.0496 -0.14009,0.18897 0.0504,0.16954 0.0775,-0.1018 z m 2.21847,3.33158 c -0.0425,0 -0.60801,0.56606 -1.25677,1.25729 l -1.17978,1.25677 1.25677,-1.17926 c 1.1668,-1.09642 1.37845,-1.3348 1.17978,-1.3348 z m -134.9928,0.39739 1.44643,1.52084 c 0.79539,0.83675 1.48005,1.52187 1.52135,1.52187 0.19639,0 -0.033,-0.25535 -1.44642,-1.5968 z m -0.72812,0.41703 c -0.0246,-0.005 -0.0605,0.0613 -0.11472,0.19689 -0.0769,0.1923 0.13206,0.6393 0.46406,0.9927 0.33194,0.3534 0.66307,0.64234 0.73587,0.64234 0.0728,0 -0.12835,-0.27816 -0.44339,-0.61288 -0.31641,-0.3368 -0.58433,-0.78329 -0.59583,-0.99219 -0.008,-0.14737 -0.0214,-0.22224 -0.046,-0.22686 z m 136.59425,0.2036 -0.46561,0.42117 c -0.47294,0.42741 -0.85989,0.81388 -0.85989,0.85938 0,0.2044 0.21889,0.0248 0.94258,-0.7767 l 0.33796,-0.37414 c 0.009,-0.0185 0.0163,-0.0372 0.0232,-0.0563 0.008,-0.0241 0.0149,-0.049 0.0217,-0.0734 z m -2.40192,2.68666 c -0.0728,0 -0.77905,0.65485 -1.56941,1.45521 -0.79043,0.80036 -1.37763,1.45521 -1.30483,1.45521 0.0728,0 0.77899,-0.65485 1.56941,-1.45521 0.79042,-0.80036 1.37763,-1.45521 1.30483,-1.45521 z m -2.91197,0.52917 c -0.0728,0 -0.72141,0.59681 -1.43557,1.3224 -0.71666,0.7276 -1.24327,1.32343 -1.17047,1.32343 0.0728,0 0.71976,-0.59583 1.43505,-1.32343 0.71667,-0.72559 1.24379,-1.3224 1.17099,-1.3224 z m -126.3189,0.13229 1.57923,1.65365 c 0.86857,0.90735 1.61274,1.65364 1.65364,1.65364 0.1955,0 -0.0431,-0.2611 -1.57923,-1.72806 z m -2.11667,0.26407 0.91209,0.9927 c 0.84869,0.9235 1.07229,1.11413 1.07229,0.91209 0,-0.0442 -0.44648,-0.49336 -0.99219,-0.9927 z m 9.92188,0.66094 c -0.0137,-0.0136 -0.1209,0.0664 -0.33073,0.23099 -0.25466,0.19972 -0.46302,0.40864 -0.46302,0.46354 0,0.21776 0.2171,0.0769 0.56275,-0.3638 0.16455,-0.20982 0.24466,-0.31707 0.231,-0.33073 z m 117.87187,2.24896 -0.8599,0.77721 c -0.47294,0.4274 -0.85989,0.8144 -0.85989,0.8599 0,0.20441 0.21889,0.0248 0.94258,-0.7767 z m -120.51771,0.39687 c -0.0137,-0.0137 -0.12091,0.0669 -0.33073,0.23151 -0.25466,0.19972 -0.46302,0.40761 -0.46302,0.46251 0,0.21776 0.21712,0.0774 0.56276,-0.36329 0.16455,-0.20983 0.24464,-0.31707 0.23099,-0.33073 z m -3.15174,1.01751 c 0.0313,0.0549 0.0581,0.11252 0.0879,0.16795 0.0219,0.0275 0.0432,0.0577 0.0636,0.0915 0.0372,0.0617 0.0732,0.12421 0.1111,0.18551 0.068,0.10592 0.12904,0.21653 0.18604,0.32867 0.008,0.0167 0.0158,0.0331 0.0227,0.0501 0.0712,-4.1e-4 0.15664,-0.008 0.17259,0.0181 0.087,0.14076 0.2339,0.25631 0.3266,0.25631 0.0927,0 -0.23254,-0.41308 -0.71934,-0.91674 -0.11865,-0.12241 -0.15031,-0.0891 -0.25114,-0.18138 z m -23.70347,23.59598 c -0.14552,0 -0.086,0.11472 0.1323,0.25579 0.21822,0.14106 0.51593,0.25735 0.66145,0.25735 0.14552,0 0.086,-0.11629 -0.13229,-0.25735 -0.21828,-0.14107 -0.51594,-0.25579 -0.66146,-0.25579 z m 172.7383,0.53175 c -0.0288,0.042 -0.0426,0.0201 -0.0708,0.0677 -0.0843,0.14043 -0.0779,0.14755 -0.11731,0.21963 0.0141,-0.019 0.0282,-0.0379 0.0424,-0.0568 0.0421,-0.0596 0.0599,-0.0828 0.0971,-0.14417 0.0171,-0.0283 0.0331,-0.0571 0.0486,-0.0863 z m -172.7383,1.05575 c -0.14552,0 -0.086,0.11472 0.1323,0.25579 0.21822,0.14106 0.51593,0.25735 0.66145,0.25735 0.14552,0 0.086,-0.11629 -0.13229,-0.25735 -0.21828,-0.14107 -0.51594,-0.25579 -0.66146,-0.25579 z m 251.36657,0.20618 c -0.0289,0.0537 -0.0799,0.0813 -0.0946,0.15193 -0.0291,0.14067 0.007,0.19241 0.0331,0.2589 0.0211,-0.13682 0.0412,-0.27398 0.0615,-0.41083 z m -88.67004,0.0248 c 0.002,0.002 0.004,0.003 0.005,0.005 -4.3e-4,-0.001 -10e-4,-0.002 -10e-4,-0.003 -0.001,-0.001 -0.005,-0.003 -0.004,-0.002 z m 0.005,0.005 c 0.001,6.7e-4 -10e-4,-4.4e-4 -0.002,-5.2e-4 6.9e-4,0.002 0.003,0.005 0.005,0.007 -9.1e-4,-0.002 -0.002,-0.004 -0.003,-0.006 z m 0.24236,0.27957 c 0.002,0.001 0.005,0.003 0.006,0.004 0.002,0.001 0.008,0.003 0.006,0.002 -0.004,-0.002 -0.008,-0.005 -0.0119,-0.006 z m 6.49676,0.0734 c -6.4e-4,4.2e-4 -10e-4,0.001 -0.002,0.001 6.1e-4,-1.5e-4 0.001,-3.7e-4 0.002,-5.2e-4 z m -0.008,0.003 c -0.15457,0.0375 -0.33303,0.0872 -0.49713,0.19327 -0.0682,0.0441 -0.006,0.0438 -0.0413,0.0801 0.019,-0.008 0.0378,-0.0167 0.0568,-0.0243 0.0397,-0.016 0.0884,-0.0363 0.12816,-0.0522 0.0627,-0.025 0.1267,-0.0486 0.185,-0.0832 0.0572,-0.0363 0.11192,-0.0763 0.16847,-0.11369 z m -165.99401,0.99529 c -0.1435,0 -0.086,0.11524 0.13229,0.25631 0.21828,0.14106 0.51796,0.25632 0.66146,0.25632 0.14552,0 0.086,-0.11526 -0.13229,-0.25632 -0.21828,-0.14107 -0.51594,-0.25631 -0.66146,-0.25631 z m 118.17419,3.33675 c -2.45193,-0.0643 -4.38767,2.87644 -3.8778,5.89214 0.23097,1.36708 1.37107,3.08773 2.37401,3.58273 1.13631,0.56121 2.04351,0.50342 3.08043,-0.19637 3.56942,-2.40317 2.418,-9.1737 -1.57664,-9.2785 z m -70.81377,1.68206 c -3.82989,0 -5.23195,6.35319 -2.00143,9.07284 1.71707,1.44328 4.04786,0.76351 5.18315,-1.51257 1.6527,-3.31926 -0.12994,-7.56027 -3.18172,-7.56027 z m 27.53475,5.05086 c -0.27289,-0.0184 -0.55845,0.0193 -0.85111,0.12351 -2.37843,0.84562 -2.55254,5.35147 -0.24598,6.35671 0.44807,0.1951 0.89817,0.35884 1.00046,0.36484 0.60129,0.0335 1.54572,-0.71377 2.06085,-1.63039 1.23396,-2.19829 -0.054,-5.0859 -1.96422,-5.21467 z m 174.51855,1.11621 c 2e-4,0.0688 3.3e-4,0.13564 5.2e-4,0.20516 9.2e-4,-0.0684 -0.001,-0.13679 0,-0.20516 z m 5.2e-4,0.20516 c -0.0144,1.07036 -0.005,2.14107 5.1e-4,3.21169 0.003,0.21503 0.007,0.4345 0.0103,0.65112 -0.005,-1.13157 -0.007,-2.55389 -0.0103,-3.86281 z m -113.2241,0.008 c -0.49358,0.0276 -0.99007,0.31621 -1.54306,0.8692 -0.7993,0.79926 -0.89953,1.0599 -0.89865,2.31511 10e-4,1.59442 0.68465,2.99863 1.65416,3.39772 2.82608,1.16366 4.74851,-3.71001 2.32337,-5.88491 -0.54846,-0.49144 -1.04142,-0.72473 -1.53582,-0.69712 z m -107.0684,4.21783 v 5.2e-4 c -1.24296,0.0574 -2.36645,1.31379 -2.38538,3.32124 -0.0143,1.51738 0.58021,2.61602 1.73271,3.20859 0.7806,0.40117 0.62099,0.40776 1.65674,-0.031 1.69005,-0.70615 2.3075,-3.50305 1.15342,-5.21519 -0.62147,-0.92221 -1.41123,-1.31857 -2.15749,-1.28416 z m 66.85638,3.70055 c -1.68724,-0.0216 -3.19515,2.0905 -2.4753,4.4974 0.16785,0.56024 0.61644,1.26493 0.99632,1.56218 1.02711,0.80791 2.21679,0.70745 3.14917,-0.26717 0.69351,-0.72343 0.77721,-0.99367 0.77721,-2.497 0,-1.50376 -0.0837,-1.77161 -0.77721,-2.49546 -0.52441,-0.54842 -1.10777,-0.79276 -1.67019,-0.79995 z m 140.09119,4.78369 c -0.0918,0.15341 -0.20213,0.32753 -0.30799,0.45992 0.25169,-0.0423 0.38043,-0.1573 0.32918,-0.42323 -0.003,-0.0146 -0.0171,-0.0226 -0.0212,-0.0367 z m -235.49105,1.88774 c -0.0665,-0.25467 -0.12092,-0.0463 -0.12092,0.46302 0,0.50932 0.0543,0.71768 0.12092,0.46302 0.0666,-0.25466 0.0666,-0.67138 0,-0.92604 z m 133.5195,0.97358 c -0.50014,0.0501 -1.02507,0.2274 -1.55908,0.55811 -2.54355,1.57039 -2.6185,6.44163 -0.13332,8.53436 0.65233,0.5489 1.13479,0.71675 2.0531,0.71675 1.03684,0 1.33796,-0.13694 2.19935,-0.99787 3.26747,-3.26716 0.93904,-9.16191 -2.56005,-8.81135 z m -102.3953,0.0217 c -3.78658,-0.003 -5.16197,6.37668 -1.95544,9.0718 1.0401,0.87519 2.65279,0.96338 3.88349,0.21239 1.85228,-1.1299 2.55101,-4.71 1.38906,-7.11016 -0.68682,-1.41878 -1.83842,-2.17303 -3.31711,-2.17403 z m 218.79802,0.0987 c -0.0278,0.0278 -0.0459,0.12081 -0.0522,0.27492 -0.0115,0.27886 0.0511,0.43516 0.13901,0.34726 0.0879,-0.0879 0.0976,-0.31733 0.0212,-0.50746 -0.0422,-0.10554 -0.0792,-0.14253 -0.10697,-0.11472 z m -86.78385,2.38177 c -0.0278,0.0278 -0.0459,0.12132 -0.0522,0.27543 -0.0115,0.27886 0.0501,0.43517 0.13798,0.34727 0.0879,-0.0879 0.0981,-0.31838 0.0217,-0.50746 -0.0422,-0.10554 -0.0791,-0.14305 -0.10697,-0.11524 z m 2.50579,2.08721 c -0.61847,0.0557 -0.11241,0.1018 1.12447,0.1018 1.23613,0 1.74215,-0.0461 1.12448,-0.1018 -0.61847,-0.0557 -1.63054,-0.0557 -2.24895,0 z m 8.72711,0.97152 c -0.12093,0.10428 -0.32807,0.18683 -0.52813,0.26303 0.0289,-0.007 0.0578,-0.0144 0.0868,-0.0212 0.0562,-0.0125 0.1129,-0.0251 0.17002,-0.0331 0.0121,-0.007 0.0256,-0.0145 0.0326,-0.0186 0.0146,-0.009 0.0289,-0.0184 0.0434,-0.0274 0.0113,-0.008 0.023,-0.0142 0.0341,-0.0222 0.009,-0.007 0.0179,-0.0142 0.0269,-0.0212 0.035,-0.0283 0.0684,-0.0593 0.10232,-0.0889 0.0107,-0.01 0.0214,-0.0205 0.032,-0.0305 z m -181.22718,0.34726 c -0.76866,0.0536 -0.20549,0.098 1.24799,0.0987 1.45518,7e-4 2.08403,-0.0444 1.39784,-0.0987 -0.6854,-0.0541 -1.8784,-0.0536 -2.64583,0 z m 173.56253,0.26924 v 5.1e-4 c -0.4754,0.0589 -0.14933,0.10856 0.72296,0.10956 0.87264,0.001 1.26204,-0.0466 0.86454,-0.10697 -0.39743,-0.0607 -1.11203,-0.104 -1.5875,-0.003 z m -177.53696,0.006 v 5.1e-4 c 6.4e-4,-1.2e-4 7.9e-4,1.2e-4 0.002,0 0.001,-2.8e-4 -0.004,-2.2e-4 -0.002,-5.1e-4 z m 0.002,5.1e-4 c -0.32272,0.0629 -0.12047,0.1169 0.45786,0.11989 0.5821,0.003 0.85085,-0.0485 0.59789,-0.11472 -0.25247,-0.0658 -0.72678,-0.0383 -1.05575,-0.005 z m 1.8464,1.31413 c -0.9095,0.0516 -0.16479,0.0956 1.65416,0.0956 1.81784,0 2.56163,-0.0435 1.65313,-0.0956 -0.90904,-0.0517 -2.39778,-0.0517 -3.30729,0 z m 7.40885,0.27441 c -0.32742,0.0631 -0.0595,0.1142 0.59531,0.1142 0.65481,0 0.92263,-0.0511 0.59532,-0.1142 -0.32651,-0.0631 -0.8632,-0.0631 -1.19063,0 z m 1.72755,1.08003 c -0.0278,0.0278 -0.0464,0.1203 -0.0527,0.27441 -0.0115,0.27886 0.0506,0.43515 0.13849,0.34726 0.0879,-0.0879 0.0981,-0.3163 0.0217,-0.50694 -0.0422,-0.10553 -0.0791,-0.14255 -0.10697,-0.11473 z m 63.43643,1.48674 0.16072,1.25677 c 0.0885,0.69113 0.439,2.06584 0.77669,3.05459 2.16199,6.31128 7.7035,10.6818 15.45642,12.19202 0.3638,0.0708 2.21262,0.0956 4.10776,0.0527 3.13099,-0.071 3.69179,-0.16211 6.13916,-1.00046 3.57792,-1.22347 5.32592,-2.30035 7.87704,-4.83846 1.55189,-1.54519 2.39558,-2.65339 3.12229,-4.10052 1.07454,-2.14209 1.7644,-4.38369 1.7694,-5.75521 l 0.003,-0.85938 h -3.39204 -3.38945 l -0.61134,1.47278 c -0.58423,1.40772 -2.46282,4.08347 -2.86855,4.08347 -0.10662,0 -0.35704,-0.37025 -0.55708,-0.82217 -0.73142,-1.65387 -3.35529,-1.90539 -4.39404,-0.42168 -0.57238,0.81736 -0.50099,2.3659 0.14882,3.19205 l 0.54932,0.6966 -0.61494,0.23306 c -2.60103,0.9876 -6.06878,0.99378 -9.03304,0.0155 -1.9779,-0.65228 -4.81626,-2.51818 -5.91851,-3.89072 -0.92712,-1.15302 -2.19935,-3.55496 -2.19935,-4.15375 0,-0.34436 -0.53922,-0.40566 -3.56619,-0.40566 z m 23.7753,1.90375 c -0.33987,-0.0736 -0.7674,0.25399 -0.7674,0.73381 0,0.35096 0.17421,0.53744 0.50126,0.53744 0.578,0 0.87011,-0.5514 0.55914,-1.0542 -0.076,-0.1229 -0.17933,-0.19252 -0.293,-0.21705 z m -45.44426,13.34699 c -2.45224,-0.0643 -4.38767,2.87647 -3.8778,5.89215 0.23097,1.36707 1.37166,3.08924 2.37453,3.58273 1.13599,0.56121 2.04367,0.50342 3.08044,-0.19637 3.56895,-2.40277 2.41735,-9.17371 -1.57717,-9.27851 z m 83.04299,0.004 v 5.2e-4 5.1e-4 5.2e-4 c -1.22674,-0.2453 -2.94521,0.5812 -3.68142,1.7725 -1.54899,2.50634 -0.63985,6.72588 1.66811,7.72976 1.05964,0.46158 1.56412,0.43096 2.66495,0.002 1.88903,-0.78861 2.97431,-3.85684 2.27635,-6.43888 -0.37079,-1.37151 -1.76838,-2.83489 -2.92799,-3.067 z m 123.67514,11.65872 c -0.037,-8.6e-4 -0.0735,0.003 -0.11058,0.006 0.0234,0.008 0.0365,0.0118 0.0677,0.0222 0.009,-0.002 0.0534,-0.008 0.0584,-0.0155 0.004,-0.005 -0.007,-0.0115 -0.0155,-0.0124 z m -86.80813,1.82366 v 5.2e-4 c 10e-4,2.8e-4 0.002,3.5e-4 0.003,5.2e-4 -8.8e-4,-2.9e-4 -0.002,-9e-4 -0.003,-0.001 z m 0.003,0.001 c 0.0143,0.005 0.0286,0.009 0.0429,0.0139 -0.01,-0.004 -0.007,-0.007 -0.0176,-0.0109 -0.0121,-0.005 -0.0156,-0.001 -0.0253,-0.003 z m -0.22376,0.10025 c 0.001,0.003 -0.003,0.003 0,0.007 0.0889,0.14384 0.27338,0.262 0.41031,0.262 0.0614,0 0.0628,-0.0203 0.0739,-0.0377 -0.004,-0.002 -0.008,-0.004 -0.0124,-0.006 -0.0366,-0.0184 -0.0728,-0.0377 -0.11007,-0.0548 -0.0399,-0.0185 -0.0789,-0.037 -0.11834,-0.0563 -0.0353,-0.0175 -0.071,-0.0358 -0.10645,-0.0532 -0.0284,-0.0146 -0.0565,-0.0286 -0.0863,-0.0403 -0.017,-0.007 -0.0336,-0.0139 -0.0506,-0.0207 z m -64.77538,0.24753 c -1.43427,-0.24098 -2.82773,1.13647 -2.82773,3.32848 0,1.3159 0.41371,2.27492 1.28054,2.97708 0.75996,0.61459 2.14534,0.40122 2.94349,-0.45372 1.31977,-1.41224 1.33535,-3.63103 0.005,-5.04052 -0.43755,-0.46957 -0.92233,-0.73075 -1.40095,-0.81132 z m -31.99856,0.0124 c -0.47905,0.0714 -0.94619,0.32486 -1.34204,0.7953 -1.23661,1.46963 -1.2343,3.56446 -0.0124,5.02502 1.59541,1.89533 4.33152,0.31224 4.33152,-2.50579 0,-2.10367 -1.53958,-3.52785 -2.97708,-3.31453 z m -65.15313,0.54519 c -0.14553,0 -0.44266,0.11477 -0.66094,0.2558 -0.21829,0.14106 -0.27834,0.25683 -0.13281,0.25683 0.14536,0 0.44318,-0.11577 0.66146,-0.25683 0.2183,-0.14103 0.27765,-0.2558 0.13229,-0.2558 z m -2.08566,1.04541 c -0.1285,0.12846 -0.16441,0.42048 -0.0739,0.64854 0.22322,0.58183 0.30799,0.51637 0.30799,-0.23409 0,-0.36134 -0.10583,-0.52375 -0.23409,-0.41445 z m 85.79321,16.62638 c -0.99227,-0.23553 -2.05056,0.0569 -2.92902,0.93534 -1.08627,1.08446 -1.53507,2.24109 -1.52807,3.93206 0.007,1.70441 0.68952,3.29327 1.82883,4.25194 0.64009,0.5386 1.14039,0.71727 2.00194,0.71727 3.07365,0 4.83614,-4.24286 3.1595,-7.60523 -0.61339,-1.23206 -1.54089,-1.99585 -2.53318,-2.23138 z m 54.93618,4.41265 1.3131,1.38906 c 0.72213,0.76216 1.34766,1.38855 1.38855,1.38855 0.19743,0 -0.0224,-0.24526 -1.3131,-1.46451 z m -2.11718,0.26458 1.3131,1.38855 c 0.72213,0.76327 1.34778,1.38958 1.38958,1.38958 0.19722,0 -0.0224,-0.2458 -1.3131,-1.46503 z m -112.33371,1.19063 c -0.0728,0 -0.77848,0.65432 -1.5689,1.45469 -0.7904,0.80036 -1.37761,1.45521 -1.30483,1.45521 0.0728,0 0.77848,-0.65485 1.5689,-1.45521 0.79043,-0.80037 1.37763,-1.45469 1.30483,-1.45469 z m 2.13527,0.34158 c 0,-0.19868 -0.23734,0.0116 -1.33377,1.17977 l -1.18029,1.25677 1.25729,-1.17977 c 0.69066,-0.64807 1.25677,-1.21427 1.25677,-1.25677 z m 116.54844,2.70061 1.04645,1.12448 c 0.57503,0.61779 1.08076,1.12448 1.12396,1.12448 0.20002,0 -1.8e-4,-0.23037 -1.04593,-1.20303 z m -1.69757,0.13281 c -0.0728,0 0.39395,0.53578 1.03663,1.19062 0.64268,0.65485 1.22738,1.19063 1.30018,1.19063 0.0728,0 -0.39292,-0.53578 -1.0356,-1.19063 -0.64267,-0.65484 -1.22841,-1.19062 -1.30121,-1.19062 z m -118.81962,0.87126 c 0,-0.19867 -0.23734,0.0111 -1.33377,1.17926 l -1.18029,1.25677 1.25729,-1.17926 c 0.69066,-0.64876 1.25677,-1.21427 1.25677,-1.25677 z m -1.98438,0.0558 -0.85989,0.7767 c -0.47295,0.4274 -0.8599,0.81491 -0.8599,0.86041 0,0.20441 0.2193,0.0243 0.94258,-0.77721 z m -1.58388,2.37505 v 5.2e-4 c -0.0434,0.0188 -0.0705,0.0661 -0.002,0.14056 0.0889,0.14203 0.27287,0.26148 0.4098,0.26148 0.38059,0 0.29683,-0.18946 -0.16123,-0.36535 -0.11725,-0.045 -0.20195,-0.0555 -0.2465,-0.0372 z m 34.66455,8.39432 c -0.0815,-0.0815 -0.29493,5e-5 -0.47439,0.18087 -0.25936,0.2613 -0.2298,0.29085 0.14728,0.14727 0.26092,-0.0994 0.40861,-0.24664 0.32711,-0.32814 z m 58.20368,1.44746 c 0.0124,0.0218 0.0241,0.0441 0.0357,0.0667 0.0124,0.0244 0.0194,0.051 0.0305,0.076 0.0451,0.0581 0.0895,0.11665 0.13332,0.1757 -0.0264,-0.0607 -8.1e-4,-0.0804 -0.0372,-0.14314 -0.0906,-0.1558 -0.11364,-0.13334 -0.16227,-0.17518 z m -60.20356,2.33732 c 0,-0.14552 -0.11524,-0.086 -0.25631,0.13229 -0.14106,0.21827 -0.25632,0.51594 -0.25632,0.66146 0,0.14552 0.11526,0.086 0.25632,-0.13229 0.14107,-0.21827 0.25631,-0.51594 0.25631,-0.66146 z m 61.4283,0.1974 c 0.0209,0.0448 0.0407,0.0898 0.061,0.13488 -0.009,-0.0381 0.015,-0.0231 -0.005,-0.0796 -0.0171,-0.0445 -0.0366,-0.0238 -0.0558,-0.0553 z m -31.06271,2.77916 c -0.0516,-0.90951 -0.092,-0.16459 -0.092,1.65313 0,1.81814 0.0403,2.56263 0.092,1.65313 0.0517,-0.90909 0.0517,-2.39766 0,-3.30626 z m -33.66668,2.84531 c -0.33454,0 -0.55584,0.0878 -0.48834,0.19689 0.0674,0.10913 0.28871,0.19947 0.48834,0.19947 0.20111,0 0.42095,-0.0903 0.48835,-0.19947 0.0675,-0.10839 -0.15234,-0.19689 -0.48835,-0.19689 z m 35.25367,1.1343 c -0.0519,-0.91484 -0.0951,-0.23518 -0.0956,1.51101 -5e-4,1.74489 0.0433,2.49498 0.0956,1.66399 0.0523,-0.83068 0.0523,-2.25985 5.1e-4,-3.175 z m -1.33687,3.56154 c -0.0665,-0.25464 -0.12093,-0.0463 -0.12093,0.46302 0,0.5093 0.0543,0.71768 0.12093,0.46302 0.0666,-0.25466 0.0666,-0.67141 0,-0.92604 z m -24.06003,6.16603 c -0.12047,0.1319 -0.24827,0.25162 -0.38344,0.36122 0.27537,-0.0217 0.39555,-0.13777 0.38344,-0.36122 z m 190.80282,39.13094 c 0.0318,0.27257 0.07,0.43899 0.0894,1.03198 0.003,0.10261 0.0142,-0.9464 0.0186,-0.94568 -0.015,-0.0102 -0.0278,-0.0146 -0.0429,-0.0248 -0.0236,-0.0162 -0.043,-0.042 -0.0651,-0.0615 z" /><path
         id="path13"
         style="fill:#9f9f9f"
         d="m 273.18628,114.21548 c 0.012,0.0301 -0.0248,0.068 0.13178,0.0744 0.0673,0.003 0.0543,-0.023 0.0837,-0.0336 -0.0718,-0.0141 -0.14353,-0.0277 -0.21549,-0.0408 z m -59.5607,17.82217 c -0.0728,0 -0.34795,0.23818 -0.61134,0.52916 -0.26313,0.29104 -0.41955,0.52917 -0.34675,0.52917 0.0728,0 0.34795,-0.23813 0.61134,-0.52917 0.2634,-0.29098 0.41955,-0.52916 0.34675,-0.52916 z m 106.94592,3.54138 c 0.0289,0.022 0.0578,0.0438 0.0873,0.0651 0.0387,0.0274 0.0793,0.052 0.11885,0.078 -0.0787,-0.0643 -0.0844,-0.01 -0.20619,-0.14315 z m 0.20619,0.14315 c 0.11016,0.09 0.27173,0.26375 0.28887,0.19999 -0.01,-0.0103 -0.0204,-0.0202 -0.0305,-0.0305 -0.0301,-0.0207 -0.0609,-0.0406 -0.0915,-0.0605 -0.0566,-0.035 -0.11144,-0.0725 -0.16692,-0.10904 z m -112.42208,1.07797 c -0.0728,0 -0.53626,0.41672 -1.02991,0.92604 -0.49366,0.50933 -0.83813,0.92604 -0.76533,0.92604 0.0728,0 0.53627,-0.41671 1.02992,-0.92604 0.4936,-0.50932 0.83812,-0.92604 0.76532,-0.92604 z m -3.94032,4.23333 c -0.0137,-0.0137 -0.1209,0.0664 -0.33073,0.231 -0.16798,0.13174 -0.22423,0.21265 -0.30541,0.3054 -10e-4,0.004 -0.003,0.008 -0.004,0.0114 -0.0187,0.0532 -0.0407,0.10485 -0.0651,0.15555 l -0.0119,0.0238 c 0.0775,0.0309 0.22706,-0.066 0.48575,-0.39584 0.16455,-0.20983 0.24518,-0.31707 0.23152,-0.33073 z m 122.46229,1.11518 c 0.004,0.005 0.002,0.004 0.007,0.01 0.18157,0.23152 0.3213,0.36794 0.4191,0.42529 -0.11308,-0.12379 -0.23171,-0.24229 -0.34985,-0.36121 -0.0254,-0.0246 -0.0512,-0.0493 -0.0765,-0.0739 z m -143.00574,46.48347 c -0.0239,0.059 -0.0399,0.20495 -0.0424,0.42323 -0.005,0.43655 0.0495,0.64727 0.12196,0.46819 0.0727,-0.17913 0.0103,-0.53637 0.0103,-0.79375 -0.0335,-0.12871 -0.0655,-0.14404 -0.0894,-0.0977 z m -0.20103,5.99085 c -0.0348,-0.0744 -0.0594,0.56454 -0.0594,1.70893 0,1.52797 0.0437,2.15306 0.0971,1.38907 0.0534,-0.76398 0.0534,-2.01415 0,-2.77813 -0.0134,-0.19099 -0.0261,-0.29508 -0.0377,-0.31987 z m 0.18087,6.83627 c -0.0278,0.0278 -0.0464,0.12029 -0.0527,0.2744 -0.0115,0.27886 0.0506,0.43517 0.1385,0.34727 0.0879,-0.0879 0.0981,-0.31712 0.0217,-0.50695 -0.0422,-0.10553 -0.0791,-0.14254 -0.10697,-0.11472 z m 102.92292,2.38125 c -0.0278,0.0278 -0.0464,0.12029 -0.0527,0.2744 -0.0115,0.27886 0.0506,0.43517 0.13849,0.34727 0.0879,-0.0879 0.0981,-0.31712 0.0217,-0.50695 -0.0422,-0.10553 -0.0792,-0.14254 -0.10697,-0.11472 z m -39.42292,0.79375 c -0.0278,0.0278 -0.0464,0.12029 -0.0527,0.2744 -0.0115,0.27896 0.0506,0.43517 0.1385,0.34727 0.0879,-0.0879 0.0981,-0.31712 0.0217,-0.50695 -0.0422,-0.10553 -0.0791,-0.14254 -0.10697,-0.11472 z m 22.92005,1.10588 c -0.13195,0.0816 -0.23978,0.31947 -0.23978,0.52916 0,0.54762 0.18002,0.46949 0.34158,-0.14831 0.0762,-0.29126 0.0301,-0.46235 -0.1018,-0.38085 z m -13.60124,2.63033 0.50437,0.59531 c 0.27721,0.32742 0.54511,0.59531 0.59531,0.59531 0.21174,0 0.0551,-0.21471 -0.50436,-0.68626 z m 14.23634,0.82062 c -0.0242,0.0599 -0.0393,0.1881 -0.0393,0.37 0,0.36382 0.0599,0.51316 0.13332,0.33125 0.0734,-0.1819 0.0734,-0.48008 0,-0.66198 -0.0367,-0.091 -0.0695,-0.0992 -0.0935,-0.0393 z m -4.86533,3.57756 c -0.092,-0.004 -0.197,0.013 -0.29249,0.0512 v 5.1e-4 c -0.21107,0.0845 -0.14802,0.14698 0.1602,0.15968 0.27887,0.0115 0.43516,-0.0511 0.34726,-0.13901 -0.0439,-0.0439 -0.12297,-0.0685 -0.21497,-0.0723 z m 2.38125,0 c -0.092,-0.004 -0.197,0.013 -0.29249,0.0512 v 5.1e-4 c -0.21107,0.0845 -0.14802,0.14698 0.1602,0.15968 0.27887,0.0115 0.43516,-0.0511 0.34726,-0.13901 -0.0439,-0.0439 -0.12297,-0.0685 -0.21497,-0.0723 z m -15.58871,2.34869 c -0.0137,0.0137 0.0664,0.12143 0.23099,0.33125 0.19972,0.25467 0.40812,0.4625 0.46302,0.4625 0.21776,0 0.0774,-0.21717 -0.36329,-0.56275 -0.20983,-0.16365 -0.31706,-0.24466 -0.33072,-0.231 z m 11.09131,5.06067 c -0.092,-0.004 -0.19699,0.013 -0.29249,0.0512 -0.21107,0.0845 -0.14802,0.14802 0.1602,0.16072 0.27897,0.0115 0.43516,-0.0516 0.34726,-0.13953 -0.0439,-0.0439 -0.12297,-0.0685 -0.21497,-0.0724 z m 6.35,0 c -0.092,-0.004 -0.19699,0.013 -0.29249,0.0512 -0.21107,0.0845 -0.14802,0.14802 0.1602,0.16072 0.27887,0.0115 0.43516,-0.0516 0.34726,-0.13953 -0.0439,-0.0439 -0.12297,-0.0685 -0.21497,-0.0724 z m -3.61115,0.31368 v 5.2e-4 c -0.25743,0.0671 -0.111,0.12626 0.32556,0.13126 0.43443,0.005 0.64732,-0.049 0.46819,-0.12144 -0.17913,-0.0727 -0.53632,-0.0774 -0.79375,-0.0103 z m 61.79106,26.37669 c -0.0728,0 -0.34971,0.23812 -0.61133,0.52916 -0.2634,0.29104 -0.41955,0.52917 -0.34675,0.52917 0.0728,0 0.34794,-0.23813 0.61133,-0.52917 0.26127,-0.29104 0.41955,-0.52916 0.34675,-0.52916 z m -123.64258,3.30729 0.50436,0.59583 c 0.27722,0.32742 0.54563,0.59479 0.59583,0.59479 0.21173,0 0.0546,-0.21419 -0.50488,-0.68574 z m 7.01197,6.74687 c -0.0136,0.0137 0.0659,0.12143 0.23048,0.33125 0.34564,0.44072 0.56327,0.58054 0.56327,0.36277 0,-0.0549 -0.20835,-0.2642 -0.46302,-0.46302 -0.20982,-0.16455 -0.31707,-0.24465 -0.33073,-0.231 z m 55.49894,19.92075 v 5.2e-4 c -0.17035,0.0332 -0.18088,0.0619 -0.0811,0.0837 0.0371,-0.0452 0.10582,-0.0792 0.20722,-0.0827 0.009,-2.7e-4 0.0176,-0.001 0.0264,-0.001 -0.0507,0.006 -0.10507,-0.0127 -0.15245,-5.2e-4 z" /><path
         id="path12"
         style="fill:#919191"
         d="m 226.83976,109.33361 c -0.30428,-0.0585 -0.46269,0.0767 -0.46251,0.39377 2.5e-4,0.4259 13.45535,35.31002 13.98313,36.25309 0.11451,0.20463 0.97354,0.76959 1.90944,1.25573 1.84336,0.95751 2.09858,1.04716 2.09858,0.73743 0,-0.1119 -3.83978,-8.83164 -8.53281,-19.37712 -6.13818,-13.79312 -8.66274,-19.1989 -8.99583,-19.2629 z m 76.72916,0.007 c -0.44675,0.13704 -0.95483,1.16018 -9.49502,19.12493 -4.08153,8.58558 -7.76702,16.33667 -8.1902,17.22376 -0.42318,0.88721 -0.76946,2.03983 -0.76946,2.5616 v 0.94878 l 1.28674,-0.84181 c 0.70768,-0.4631 1.63631,-1.03141 2.06344,-1.26246 0.62826,-0.33984 1.01045,-0.99702 2.00143,-3.43958 4.79163,-11.81111 7.9547,-19.61131 10.49548,-25.88266 2.81406,-6.94587 3.3435,-8.6583 2.60759,-8.43256 z m 29.17858,21.15272 v 5.1e-4 5.2e-4 c -0.23601,0.0812 -13.83279,12.83678 -19.05258,17.87384 -2.26728,2.18796 -2.51376,2.6831 -0.79943,1.60714 0.5093,-0.31967 1.77739,-0.88523 2.81791,-1.25625 l 1.89188,-0.67438 6.85591,-7.27604 c 8.85523,-9.39796 8.89122,-9.43727 8.70334,-9.92704 -0.002,-0.006 -0.005,-0.0123 -0.007,-0.0181 -0.004,-0.008 -0.007,-0.0165 -0.0109,-0.0248 -0.0934,-0.21202 -0.26494,-0.35151 -0.39895,-0.3054 z m -135.96017,0.75034 c -0.84874,0 -0.0228,1.2659 2.80034,4.29018 1.81155,1.94069 1.88964,1.99411 3.19051,3.3848 0.13821,0.11603 0.26469,0.24579 0.37258,0.39068 0.005,0.006 0.009,0.0125 0.0129,0.0186 6.76571,7.22778 8.36313,8.85009 9.05423,8.85424 0.4385,0.003 1.39267,0.17063 2.12028,0.3731 0.72747,0.20246 1.37928,0.37871 1.44798,0.39171 0.0687,0.013 -0.10988,-0.19303 -0.39688,-0.45837 -0.43904,-0.40591 -11.23817,-10.5846 -16.68218,-15.72359 -0.88641,-0.83675 -1.75024,-1.52135 -1.91978,-1.52135 z m 30.06948,23.85074 c -1.42619,0.0264 -2.81291,0.14916 -4.16202,0.36793 -10.9787,1.78051 -19.20066,9.16143 -23.12624,20.76049 -1.59209,4.70471 -2.29791,9.36015 -2.29391,15.13707 0.004,5.89619 0.85286,11.1382 2.81791,17.39997 1.23754,3.94345 1.3932,4.33489 3.55534,8.94829 3.24185,6.91716 7.60398,12.92486 14.51488,19.98948 5.91293,6.04454 11.59197,10.71023 19.06188,15.66054 5.02846,3.33222 7.99626,5.0485 14.15521,8.18555 4.95562,2.52412 8.30235,4.0472 12.56771,5.71903 1.38245,0.54186 2.62305,0.99647 2.75694,1.01027 0.60478,0.0623 8.18225,-3.17448 12.98577,-5.54695 8.21792,-4.05883 15.25921,-8.38313 23.01875,-14.1366 9.22333,-6.8389 18.24887,-16.42945 23.47092,-24.94008 0.73664,-1.20055 1.4506,-2.18282 1.58698,-2.18282 0.34859,0 3.71644,-7.10146 4.85087,-10.22883 4.96679,-13.69249 4.7565,-28.78117 -0.55087,-39.56864 -5.38207,-10.93899 -15.50725,-17.0761 -27.25054,-16.51682 -11.68619,0.55656 -23.4582,5.99166 -37.30315,17.2222 l -0.79995,0.64906 -2.77192,-2.25723 c -6.92971,-5.64304 -16.37444,-11.07282 -23.14484,-13.30565 -5.02863,-1.65837 -9.66115,-2.44551 -13.93972,-2.36626 z m 81.36661,2.574 c 2.70058,0.0945 5.15542,0.5741 7.31531,1.44643 6.4168,2.59189 11.34597,8.13074 13.73095,15.42903 1.85787,5.68517 2.17039,12.94198 0.96118,22.31646 -0.38479,2.98317 -0.78291,5.89919 -0.88522,6.47971 -0.12262,0.69569 -0.34289,1.0853 -0.64543,1.1436 -0.55267,0.10643 -0.55354,0.0484 -0.0817,-3.12539 0.97063,-6.51839 1.28576,-15.46361 0.70073,-19.90318 -0.52248,-3.96481 -1.92802,-8.37082 -3.55689,-11.15022 -2.88481,-4.92257 -8.25283,-9.07908 -13.03331,-10.09189 -2.38323,-0.50491 -7.62237,-0.49962 -10.58075,0.0114 -6.4651,1.11579 -15.36639,4.81449 -23.20685,9.64334 -3.21202,1.97813 -3.84219,2.12564 -4.42557,1.03559 -0.15342,-0.28669 -0.20534,-0.75339 -0.11524,-1.03714 0.22409,-0.70602 3.5976,-2.74367 9.12606,-5.51284 8.07699,-4.04569 15.56298,-6.29273 21.91597,-6.65128 0.95297,-0.0538 1.88052,-0.0651 2.78071,-0.0336 z m -130.0117,5.31854 c -1.61722,-0.23315 -1.33919,0.59694 0.47387,1.4149 0.83675,0.3775 3.60508,1.64602 6.15156,2.81895 l 4.63021,2.13217 0.58756,-0.72657 c 0.32317,-0.39978 0.50174,-0.81199 0.39688,-0.91571 -0.22547,-0.22304 -11.67756,-4.64264 -12.24008,-4.72374 z m 174.08963,0.007 c -0.15492,0 -2.56609,0.84274 -5.35781,1.87275 -2.79188,1.02998 -5.58698,2.06027 -6.21151,2.28927 l -1.13585,0.41651 0.70125,0.73174 0.70125,0.73174 1.22835,-0.52504 c 2.07887,-0.88907 3.33373,-1.50252 5.39347,-2.43706 0.0213,-0.0161 0.0489,-0.0299 0.0837,-0.0398 0.008,-0.002 0.006,-0.001 0.0119,-0.003 1.71415,-0.77858 4.40765,-1.94971 4.53616,-2.05 0.0808,-0.063 0.13532,-0.1466 0.18603,-0.22996 0.0251,-0.0499 0.0489,-0.10064 0.0718,-0.15141 5.4e-4,-0.001 8.4e-4,-0.002 0.001,-0.003 0.10652,-0.29598 0.0522,-0.60255 -0.20981,-0.60255 z m -51.00981,6.7846 c 3.9967,0.1048 5.14684,6.87377 1.57665,9.2785 -1.5999,1.07764 -3.37759,0.58272 -4.58267,-1.27589 -2.12877,-3.28304 -0.32304,-8.08991 3.00602,-8.00261 z m -70.98636,1.66139 c 0.74963,-0.0554 1.51018,0.17841 2.17454,0.73743 1.86185,1.56663 2.36228,4.47062 1.17977,6.84351 -0.36007,0.72261 -1.00353,1.51962 -1.42988,1.77147 -0.42634,0.25183 -1.2538,0.45785 -1.83865,0.45785 -2.80991,0 -4.66915,-4.1668 -3.252,-7.2869 0.69733,-1.53513 1.91683,-2.43107 3.16622,-2.52336 z m 27.70735,5.07153 c 1.91026,0.12877 3.2002,3.01564 1.96422,5.21467 -0.32674,0.58135 -0.88227,1.18825 -1.23455,1.34875 -0.78465,0.35752 -0.81714,0.35641 -1.82676,-0.0832 -2.30862,-1.00524 -2.13447,-5.5089 0.24598,-6.35671 0.29266,-0.10423 0.57822,-0.14191 0.85111,-0.12351 z m 61.33476,1.29914 c 0.93996,0 2.26505,1.25823 2.50786,2.38125 0.27261,1.26096 -0.11975,2.9815 -0.83148,3.64578 -1.89217,1.76603 -4.1564,0.23498 -4.1584,-2.81223 -8.8e-4,-1.25766 0.0994,-1.51585 0.89865,-2.31511 0.55891,-0.55888 1.15856,-0.89969 1.58337,-0.89969 z m -107.10871,4.24884 c 0.74626,-0.0344 1.53602,0.36195 2.15749,1.28416 1.15489,1.71375 0.53663,4.50904 -1.15342,5.21519 -1.038,0.43376 -0.87614,0.43072 -1.65674,0.03 -1.15387,-0.5929 -1.74701,-1.69062 -1.73271,-3.20807 0.0189,-2.00995 1.14162,-3.2639 2.38538,-3.32125 z m 66.85638,3.70003 c 0.56242,0.007 1.14441,0.25118 1.67019,0.79995 0.69351,0.72385 0.77721,0.99222 0.77721,2.49598 0,1.50375 -0.0837,1.77264 -0.77721,2.49648 -1.41185,1.47365 -3.51273,0.81739 -4.14549,-1.29449 -0.72178,-2.40946 0.78804,-4.51949 2.4753,-4.49792 z m -64.41157,7.62693 c 2.0039,-0.12948 4.02043,1.73924 4.02043,4.92941 0,1.90977 -0.78759,3.67892 -1.9544,4.39043 -0.4605,0.28081 -1.3108,0.50277 -1.92805,0.50333 -2.85014,0.003 -4.72198,-4.13967 -3.29282,-7.28586 0.75511,-1.66235 1.9525,-2.45961 3.15484,-2.53731 z m 102.71105,0.0258 c 0.75038,-0.0348 1.50306,0.1953 2.1332,0.72553 2.32323,1.95484 2.44418,5.87988 0.24908,8.07496 -0.86139,0.8614 -1.16251,0.99787 -2.19935,0.99787 -3.02576,0 -4.92365,-4.30745 -3.33985,-7.57938 0.66178,-1.36704 1.90624,-2.16094 3.15692,-2.21898 z m -48.78824,4.07882 c 1.20924,0.0187 2.37758,0.0668 3.49281,0.14572 4.67259,0.33052 10.19827,0.99532 14.21102,1.70998 5.11661,0.91141 15.16835,3.87556 15.38924,4.53822 0.15475,0.46426 -3.44037,4.98909 -5.99033,7.53959 -7.69562,7.69726 -15.79972,11.70068 -25.94054,12.81473 -0.80037,0.0879 -1.87193,0.20201 -2.38125,0.25321 -1.33919,0.13462 -7.18627,-0.73113 -9.65729,-1.42989 -3.01776,-0.85338 -6.62735,-2.18829 -8.61188,-3.18533 -2.81346,-1.41348 -7.38708,-4.58887 -9.69346,-6.72982 -2.61558,-2.428 -6.96237,-8.18799 -6.96237,-9.2258 0,-0.37412 2.69331,-1.27808 8.73125,-2.93108 8.46787,-2.31825 18.94827,-3.63048 27.4128,-3.49953 z m 78.42054,0.55655 v 0.85731 0.85732 l 4.16718,-0.13901 c 5.67739,-0.18936 6.94532,-0.3341 6.94532,-0.7922 0,-0.54372 -0.66207,-0.61949 -6.15157,-0.70539 z m -163.38021,1.32654 -3.57188,0.0692 c -6.1438,0.11887 -7.97972,0.30857 -7.88272,0.81546 0.0716,0.3744 0.62158,0.45904 3.78478,0.58187 2.0356,0.079 4.63164,0.16834 5.76864,0.19844 l 2.06706,0.0548 -0.0827,-0.8599 z m 41.97418,19.61689 c 3.99669,0.1048 5.14668,6.87377 1.57665,9.2785 -1.5999,1.07764 -3.37747,0.58271 -4.58267,-1.27589 -2.12879,-3.28305 -0.3232,-8.08991 3.00602,-8.00261 z m 83.04248,0.002 c 1.16053,0.23211 2.55719,1.69558 2.92798,3.06752 0.69796,2.58246 -0.38629,5.64858 -2.27634,6.43836 -1.10089,0.46012 -1.60377,0.45869 -2.66444,-0.002 -2.30864,-1.00497 -3.21888,-5.22142 -1.66863,-7.72976 0.73627,-1.1913 2.45463,-2.01942 3.68143,-1.77406 z m -103.06141,4.37441 -3.04013,1.38752 c -3.14035,1.43297 -16.58961,7.58406 -19.51044,8.92348 -1.49235,0.68418 -1.94207,1.16988 -1.49706,1.61489 0.0859,0.086 1.24681,-0.24266 2.57969,-0.73019 2.03819,-0.74553 21.06389,-7.99174 22.45392,-8.55193 0.40714,-0.16407 0.381,-0.303 -0.26716,-1.41283 z m 121.51248,0.82063 v 5.1e-4 c -0.3457,0.13754 -1.41672,1.98675 -1.23042,2.12442 0.0598,0.0442 5.04974,2.05781 11.08873,4.47466 6.03896,2.41684 11.20905,4.37401 11.4887,4.34961 1.37186,-0.11986 0.52659,-0.80197 -3.17551,-2.56677 -0.004,-0.001 -0.008,-0.003 -0.0114,-0.005 -0.027,-0.0103 -0.0543,-0.0196 -0.0816,-0.0294 -0.0257,-0.009 -0.0431,-0.0224 -0.0537,-0.0367 -2.19549,-1.04578 -6.97115,-3.32303 -10.7487,-5.12579 -3.82146,-1.82357 -7.09568,-3.25713 -7.27604,-3.18533 z m -47.11392,8.61807 c 0.17549,-0.0188 0.35429,-0.0136 0.53381,0.0165 0.47877,0.0805 0.96262,0.34101 1.40147,0.8108 1.31651,1.40967 1.3119,3.62803 -0.005,5.04052 -1.75077,1.8737 -4.22403,0.39674 -4.22403,-2.52284 0,-1.91902 1.06544,-3.21326 2.29392,-3.34502 z m -30.92421,0.0248 c 1.25766,0.15816 2.43602,1.47856 2.43602,3.32021 0,1.0584 -0.31465,1.80853 -1.1374,2.71198 -0.8342,0.91577 -2.33127,0.81925 -3.19412,-0.20619 -1.22954,-1.46139 -1.22487,-3.5559 0.0119,-5.02553 0.39598,-0.47059 0.86385,-0.72405 1.34307,-0.7953 0.17971,-0.0267 0.36087,-0.0278 0.54054,-0.005 z m -28.12335,9.81284 -0.77205,0.85473 c -0.42469,0.47014 -4.24125,4.54577 -8.48113,9.05681 -9.68219,10.30129 -9.7447,10.37149 -9.52914,10.72027 0.0983,0.15901 0.33701,0.25318 0.53072,0.20878 0.19371,-0.0444 3.48659,-3.0062 7.31738,-6.58152 3.83093,-3.57533 8.37193,-7.80124 10.09086,-9.39064 l 3.12539,-2.88974 -1.14102,-0.98961 z m 90.15057,1.20406 -0.96997,0.74 c -0.53354,0.40695 -0.93397,0.82979 -0.88987,0.93948 0.0441,0.10972 1.38979,1.43013 2.99052,2.93471 3.50975,3.29906 11.55864,10.91404 13.75833,13.01677 1.58915,1.51907 2.06819,1.76997 2.38952,1.25006 0.19385,-0.31365 0.0341,-0.49259 -8.74262,-9.77667 -3.50797,-3.71073 -6.86355,-7.27728 -7.45691,-7.92561 z m -44.60762,7.14271 c 1.17062,0.026 2.35008,0.73971 3.12488,2.29444 1.20572,2.41958 0.72018,5.30782 -1.15755,6.88795 -0.64009,0.5386 -1.13766,0.71675 -2.00195,0.71675 -2.14665,0 -3.81937,-2.18723 -3.83077,-5.00951 -0.0124,-3.06613 1.91452,-4.93295 3.86539,-4.88963 z m -26.39115,6.72414 c -0.1576,0 -0.77345,1.51878 -3.7021,9.12813 -0.56007,1.45521 -2.02811,5.25496 -3.26233,8.44341 -1.23423,3.18838 -2.17805,5.90357 -2.09755,6.03374 0.46094,0.74571 1.15937,-0.33238 3.46594,-5.34903 1.37158,-2.98315 3.67489,-7.95336 5.11855,-11.0448 1.44366,-3.09136 2.62465,-5.67647 2.62465,-5.74487 0,-0.1577 -1.91624,-1.46658 -2.14716,-1.46658 z m 51.47334,1.10536 c -0.091,-0.12211 -2.23035,1.25239 -2.23035,1.43299 0,0.0827 1.29165,3.02827 2.87011,6.54533 1.02582,2.28569 2.01336,4.50064 3.0303,6.77789 0.0338,0.0458 0.0675,0.0918 0.10026,0.13849 0.0528,0.0745 0.0975,0.15424 0.13849,0.23564 0.0465,0.10061 0.0876,0.20342 0.12971,0.30593 0.0395,0.0972 0.079,0.19477 0.11834,0.29197 0.0402,0.0961 0.079,0.19237 0.11833,0.28887 0.0508,0.12627 0.10168,0.25293 0.15348,0.37879 0.0725,0.17521 0.15383,0.34654 0.23513,0.5178 0.0748,0.15887 0.14664,0.31869 0.21084,0.48214 0.0314,0.0836 0.0164,0.0435 0.0444,0.12144 0.01,0.0267 0.0149,0.0513 0.0186,0.0749 0.0899,0.20205 0.28771,0.64191 0.36483,0.81545 1.63974,3.6898 2.20396,4.49797 2.64377,3.78633 0.0846,-0.13681 -0.60816,-2.3098 -1.53944,-4.82864 -0.93127,-2.51894 -2.73957,-7.4376 -4.01836,-10.93008 -1.27879,-3.4924 -2.35349,-6.38837 -2.38849,-6.43527 z m -26.70431,11.85871 0.17002,3.63802 c 0.0933,2.00104 0.1834,5.18635 0.2005,7.07812 0.0171,1.89167 0.10697,4.06996 0.19947,4.84053 0.12051,1.00343 0.24788,1.31398 0.52348,1.31103 0.0364,-0.0153 0.0727,-0.0306 0.10904,-0.046 0.33304,-0.15765 0.44245,-1.38402 0.72967,-8.20208 0.37619,-8.92984 0.41851,-8.60701 -1.13843,-8.61601 z" /><path
         style="fill:#6b6b6b"
         d="m 266.90966,276.10358 c 0.005,-0.43656 0.0647,-0.58312 0.13177,-0.32569 0.0671,0.25743 0.0627,0.61461 -0.01,0.79375 -0.0725,0.17913 -0.12736,-0.0315 -0.12197,-0.46806 z m -2.09618,-3.83646 c 0,-0.65484 0.0516,-0.92273 0.11466,-0.59531 0.0631,0.32742 0.0631,0.8632 0,1.19062 -0.0631,0.32743 -0.11466,0.0595 -0.11466,-0.59531 z m -52.06269,-17.99166 c 0.26339,-0.29105 0.53842,-0.52917 0.61118,-0.52917 0.0728,0 -0.0832,0.23812 -0.3466,0.52917 -0.26339,0.29104 -0.53842,0.52916 -0.61118,0.52916 -0.0728,0 0.0832,-0.23812 0.3466,-0.52916 z m -1.85209,-1.05834 c 0.26339,-0.29104 0.53842,-0.52916 0.61118,-0.52916 0.0728,0 -0.0832,0.23812 -0.34659,0.52916 -0.26339,0.29104 -0.53842,0.52917 -0.61118,0.52917 -0.0728,0 0.0832,-0.23813 0.34659,-0.52917 z m 104.74987,-1.38906 -0.50403,-0.59531 0.59531,0.50403 c 0.55945,0.47366 0.71576,0.68659 0.50403,0.68659 -0.0502,0 -0.3181,-0.26789 -0.59531,-0.59531 z m 2.50493,-0.39687 c -0.32911,-0.41965 -0.31975,-0.42901 0.0999,-0.0999 0.44073,0.34564 0.58089,0.56292 0.36313,0.56292 -0.0549,0 -0.2633,-0.20836 -0.46302,-0.46302 z m -102.09542,-0.16605 c 0,-0.0549 0.20836,-0.2633 0.46302,-0.46302 0.41964,-0.3291 0.429,-0.31975 0.0999,0.0999 -0.34564,0.44073 -0.56291,0.58089 -0.56291,0.36312 z m -1.32292,-2.14906 c 0.34178,-0.3638 0.68094,-0.66146 0.7537,-0.66146 0.0728,0 -0.14734,0.29766 -0.48912,0.66146 -0.34177,0.3638 -0.68093,0.66146 -0.75369,0.66146 -0.0728,0 0.14734,-0.29766 0.48911,-0.66146 z m 96.41549,-1.52135 -0.50403,-0.59532 0.59532,0.50403 c 0.55944,0.47366 0.71576,0.6866 0.50402,0.6866 -0.0502,0 -0.31809,-0.26789 -0.59531,-0.59531 z m -91.12382,-0.0337 c 0,-0.0549 0.20836,-0.2633 0.46302,-0.46302 0.41964,-0.32911 0.429,-0.31975 0.0999,0.0999 -0.34564,0.44073 -0.56291,0.58089 -0.56291,0.36313 z m 93.76965,-0.76 -0.50402,-0.59532 0.59531,0.50403 c 0.55945,0.47366 0.71576,0.6866 0.50403,0.6866 -0.0502,0 -0.3181,-0.26789 -0.59532,-0.59531 z m -95.22486,-1.78594 c 0.26339,-0.29104 0.53842,-0.52917 0.61118,-0.52917 0.0728,0 -0.0832,0.23813 -0.3466,0.52917 -0.26339,0.29104 -0.53842,0.52917 -0.61118,0.52917 -0.0728,0 0.0832,-0.23813 0.3466,-0.52917 z m 90.4875,-1.5875 c 0.26339,-0.29104 0.53842,-0.52917 0.61118,-0.52917 0.0728,0 -0.0832,0.23813 -0.34659,0.52917 -0.26339,0.29104 -0.53842,0.52917 -0.61118,0.52917 -0.0728,0 0.0832,-0.23813 0.34659,-0.52917 z m -85.36187,-0.19844 c -0.32911,-0.41964 -0.31975,-0.429 0.0999,-0.0999 0.44073,0.34564 0.58089,0.56291 0.36313,0.56291 -0.0549,0 -0.2633,-0.20836 -0.46302,-0.46302 z m -2.38125,-0.26458 c -0.32911,-0.41964 -0.31975,-0.429 0.0999,-0.0999 0.25466,0.19972 0.46302,0.40808 0.46302,0.46303 0,0.21776 -0.21727,0.0776 -0.56291,-0.36313 z m -2.35335,-4.23333 -2.24311,-2.31511 2.3151,2.24312 c 1.27331,1.23371 2.31511,2.27551 2.31511,2.3151 0,0.19252 -0.30376,-0.0929 -2.3871,-2.24311 z m 93.66835,1.38906 c 0.49365,-0.50932 0.95708,-0.92604 1.02984,-0.92604 0.0728,0 -0.2716,0.41672 -0.76526,0.92604 -0.49365,0.50932 -0.95708,0.92604 -1.02984,0.92604 -0.0728,0 0.2716,-0.41672 0.76526,-0.92604 z m 2.11667,-2.06717 c 0,-0.0455 0.38695,-0.43248 0.85989,-0.85989 l 0.8599,-0.77711 -0.77711,0.8599 c -0.72437,0.80154 -0.94268,0.98151 -0.94268,0.7771 z m -100.84001,-4.61356 c -0.32911,-0.41964 -0.31975,-0.429 0.0999,-0.0999 0.25466,0.19972 0.46302,0.40808 0.46302,0.46303 0,0.21776 -0.21727,0.0776 -0.56292,-0.36313 z m 50.90493,-9.24533 c 0.25744,-0.0671 0.61462,-0.0627 0.79375,0.01 0.17914,0.0725 -0.0315,0.12736 -0.46805,0.12197 -0.43656,-0.005 -0.58313,-0.0647 -0.3257,-0.13177 z m -64.49722,-10.16428 c -5.50449,-0.7938 -11.12318,-3.95839 -14.00969,-7.8906 -0.52249,-0.71177 -1.31393,-2.16787 -1.75875,-3.23576 -0.67292,-1.61548 -0.80764,-2.29173 -0.80203,-4.02579 0.009,-2.70147 0.16472,-3.36948 1.29232,-5.53445 1.00325,-1.92623 2.75759,-3.70196 4.29794,-4.35033 0.50932,-0.21439 0.95381,-0.41498 0.98775,-0.44575 0.0339,-0.0308 -0.45542,-1.23865 -1.08745,-2.68417 -2.80618,-6.41795 -2.72945,-12.04677 0.22298,-16.35925 0.63894,-0.93326 1.08094,-1.78677 0.98223,-1.89668 -0.0987,-0.10991 -0.0503,-0.12637 0.10747,-0.0366 0.15782,0.0898 0.91107,-0.3057 1.6739,-0.87888 1.29453,-0.97268 2.02651,-1.27178 4.19072,-1.71237 0.83578,-0.17014 0.8599,-0.14983 0.8599,0.72399 0,1.38331 0.70248,3.43553 1.6002,4.67479 l 0.81166,1.12047 -0.54938,1.65086 c -1.28426,3.85924 -1.63061,6.55852 -1.77543,13.83701 -0.20168,10.13585 0.46737,15.02251 3.16257,23.09903 0.77783,2.33086 1.40666,4.22341 1.39741,4.20566 -0.009,-0.0177 -0.7312,-0.13528 -1.60432,-0.2612 z m 132.30938,-2.81116 c 1.77274,-4.88697 3.11945,-11.15489 3.42011,-15.91804 0.25459,-4.03313 0.35508,-9.55664 0.17181,-9.44337 -0.0979,0.0605 -0.13504,-0.74292 -0.0825,-1.78541 0.16314,-3.23687 -1.26046,-10.12128 -2.92792,-14.1592 l -0.8032,-1.94502 0.73882,-1.54579 c 0.70473,-1.47446 0.77658,-1.53899 1.5572,-1.39849 1.56319,0.28137 3.60581,1.38921 5.01002,2.71725 0.77667,0.73454 1.50982,1.247 1.62922,1.1388 0.11941,-0.1082 0.14059,-0.0627 0.0471,0.10114 -0.0935,0.16382 0.19162,1.02156 0.63362,1.90608 0.442,0.88452 0.99257,2.53472 1.2235,3.66711 0.68863,3.3768 -0.0529,7.47866 -2.21514,12.2529 l -0.77888,1.71979 1.20636,0.58298 c 1.85605,0.89694 3.40224,2.55906 4.48005,4.81595 0.90434,1.89364 0.95818,2.15421 0.93458,4.52295 -0.0384,3.85327 -1.34632,6.79531 -4.36133,9.81032 -2.25635,2.25635 -6.49546,4.51147 -10.09635,5.37105 l -0.72438,0.17292 z m -37.05938,0.19421 c 0.86402,-0.87313 1.63047,-1.5875 1.70323,-1.5875 0.0728,0 -0.57463,0.71437 -1.43864,1.5875 -0.86402,0.87312 -1.63047,1.5875 -1.70323,1.5875 -0.0728,0 0.57463,-0.71438 1.43864,-1.5875 z m -58.49805,-0.59531 -0.50403,-0.59532 0.59531,0.50403 c 0.55945,0.47366 0.71576,0.6866 0.50403,0.6866 -0.0502,0 -0.3181,-0.26789 -0.59531,-0.59531 z m 64.3359,-7.00005 c -0.14359,-0.37708 -0.1132,-0.40748 0.14811,-0.14811 0.18082,0.17947 0.26211,0.39297 0.18065,0.47443 -0.0815,0.0815 -0.2294,-0.0654 -0.32876,-0.32632 z m -39.88642,-6.07913 c 0.191,-0.0764 0.4192,-0.067 0.50712,0.0209 0.0879,0.0879 -0.0683,0.15045 -0.34726,0.13896 -0.30823,-0.0127 -0.37092,-0.0754 -0.15986,-0.15985 z m 68.09911,-6.30155 c 0.005,-0.43656 0.0647,-0.58313 0.13178,-0.3257 0.0671,0.25743 0.0627,0.61462 -0.01,0.79375 -0.0725,0.17914 -0.12736,-0.0315 -0.12197,-0.46805 z m 1.02764,0.24253 c 0.0127,-0.30822 0.0754,-0.37092 0.15986,-0.15985 0.0764,0.191 0.067,0.4192 -0.0209,0.50712 -0.0879,0.0879 -0.15045,-0.0684 -0.13897,-0.34727 z m -1.02764,-6.59253 c 0.005,-0.43656 0.0647,-0.58313 0.13178,-0.3257 0.0671,0.25744 0.0627,0.61462 -0.01,0.79375 -0.0725,0.17914 -0.12736,-0.0315 -0.12197,-0.46805 z M 198.9921,169.56123 c -0.54141,-0.99476 -0.77232,-1.8543 -0.86859,-3.23338 -0.0721,-1.03314 -0.24382,-1.95134 -0.38154,-2.04045 -0.53327,-0.34505 0.58713,-4.79184 1.90566,-7.56341 2.1308,-4.479 5.55621,-7.38101 9.74274,-8.25406 2.89416,-0.60354 5.01932,-0.23538 8.16298,1.41412 2.28552,1.19923 2.78059,1.1474 5.00668,-0.52418 2.0141,-1.5124 4.77968,-2.85648 7.12409,-3.46234 2.44397,-0.63159 6.77464,-0.62841 9.12813,0.007 4.89275,1.32036 9.21098,4.67557 11.70725,9.09638 l 0.79003,1.39912 0.82896,-0.6806 c 4.12875,-3.38979 7.8964,-4.51729 14.38139,-4.30375 3.47166,0.11432 4.14864,0.2154 6.03778,0.90156 1.17024,0.42504 2.69302,1.1041 3.38395,1.50902 1.35839,0.79606 3.0873,2.22076 3.0873,2.54406 0,0.11009 0.4178,0.64316 0.92844,1.1846 0.51065,0.54143 0.87338,1.07352 0.80609,1.18241 -0.0673,0.10889 -0.87205,0.6556 -1.78834,1.21491 -2.53395,1.54674 -8.4019,5.74447 -10.40165,7.44098 -1.24473,1.05598 -1.88207,1.43754 -2.11785,1.2679 -0.1855,-0.13346 -1.56982,-1.2442 -3.07625,-2.4683 -3.43303,-2.78961 -9.3117,-6.66058 -13.5301,-8.90926 -5.85334,-3.1202 -11.02795,-4.9108 -16.81664,-5.81914 -3.74781,-0.58809 -9.77324,-0.40014 -12.99426,0.40533 -2.44143,0.61052 -6.15074,2.26435 -8.62451,3.84533 -2.09291,1.33757 -5.12891,4.28781 -7.02891,6.83036 -1.48034,1.98097 -4.20185,6.98987 -4.20185,7.73344 0,0.84576 -0.50615,0.54089 -1.19098,-0.71736 z m 132.55354,-3.27939 c -2.73992,-4.48351 -5.66202,-7.83893 -8.76474,-10.06445 -2.27844,-1.63427 -6.67463,-3.64982 -9.48844,-4.35022 -3.58385,-0.89207 -9.29008,-1.01187 -13.55825,-0.28465 -4.41911,0.75293 -9.75349,2.55409 -14.40036,4.86229 l -3.88152,1.92803 -0.93069,-1.25241 -0.93069,-1.25242 1.25948,-1.927 c 3.56881,-5.46025 9.22191,-8.53934 15.64098,-8.51921 4.40719,0.0138 7.91384,1.21059 11.64167,3.97312 2.08355,1.54402 2.97087,1.61924 5.06667,0.42946 4.96962,-2.8212 10.60473,-1.8531 14.85806,2.55259 3.57286,3.70083 5.92384,10.85274 4.48772,13.65204 l -0.52684,1.02691 z m -26.25683,-6.64501 c 0.25466,-0.0666 0.67138,-0.0666 0.92604,0 0.25466,0.0666 0.0463,0.121 -0.46302,0.121 -0.50932,0 -0.71768,-0.0545 -0.46302,-0.121 z m 3.57188,0.007 c 0.1819,-0.0734 0.47955,-0.0734 0.66145,0 0.18191,0.0734 0.0331,0.13345 -0.33073,0.13345 -0.3638,0 -0.51263,-0.0601 -0.33072,-0.13345 z m 2.71197,-9.44966 c 0,-0.0549 0.20836,-0.26331 0.46303,-0.46302 0.41964,-0.32911 0.429,-0.31975 0.0999,0.0999 -0.34564,0.44073 -0.56292,0.58089 -0.56292,0.36313 z m -97.92958,-3.27355 c -0.32911,-0.41964 -0.31975,-0.429 0.0999,-0.0999 0.25467,0.19972 0.46302,0.40808 0.46302,0.46302 0,0.21776 -0.21727,0.0776 -0.56291,-0.36313 z m 105.99938,-1.12448 c 0.26339,-0.29104 0.53842,-0.52916 0.61118,-0.52916 0.0728,0 -0.0832,0.23812 -0.3466,0.52916 -0.26339,0.29105 -0.53842,0.52917 -0.61118,0.52917 -0.0728,0 0.0832,-0.23812 0.3466,-0.52917 z m -110.88556,-0.33072 -0.50403,-0.59532 0.59531,0.50403 c 0.55945,0.47366 0.71576,0.6866 0.50403,0.6866 -0.0502,0 -0.3181,-0.26789 -0.59531,-0.59531 z m 107.31368,0.49541 c 0,-0.0549 0.20836,-0.2633 0.46302,-0.46302 0.41965,-0.3291 0.429,-0.31975 0.0999,0.0999 -0.34565,0.44073 -0.56292,0.58088 -0.56292,0.36312 z m -107.31368,-3.67041 -0.50403,-0.59532 0.59531,0.50403 c 0.32742,0.27722 0.59531,0.54511 0.59531,0.59531 0,0.21174 -0.21293,0.0554 -0.68659,-0.50402 z m 111.94389,-0.72761 c 0.26339,-0.29104 0.53842,-0.52916 0.61118,-0.52916 0.0728,0 -0.0832,0.23812 -0.3466,0.52916 -0.26339,0.29104 -0.53842,0.52917 -0.61118,0.52917 -0.0728,0 0.0832,-0.23813 0.3466,-0.52917 z m 3.04271,-0.13229 c 0.34177,-0.3638 0.68094,-0.66146 0.7537,-0.66146 0.0728,0 -0.14734,0.29766 -0.48912,0.66146 -0.34177,0.3638 -0.68094,0.66146 -0.7537,0.66146 -0.0728,0 0.14734,-0.29766 0.48912,-0.66146 z m -119.09625,-0.33073 c -0.32911,-0.41964 -0.31975,-0.429 0.0999,-0.0999 0.44073,0.34564 0.58089,0.56291 0.36313,0.56291 -0.055,0 -0.26331,-0.20836 -0.46302,-0.46302 z"
         id="path11" /><path
         style="fill:#6a6a6a"
         d="m 317.23607,250.50514 -0.50403,-0.59531 0.59531,0.50403 c 0.55945,0.47366 0.71576,0.6866 0.50403,0.6866 -0.0502,0 -0.3181,-0.26789 -0.59531,-0.59532 z M 265.7336,197.45873 c 0.90951,-0.0517 2.39779,-0.0517 3.30729,0 0.90951,0.0517 0.16537,0.0939 -1.65364,0.0939 -1.81901,0 -2.56315,-0.0423 -1.65365,-0.0939 z m 63.91002,-8.00619 c 0,-0.80036 0.0496,-1.12778 0.11022,-0.7276 0.0606,0.40018 0.0606,1.05502 0,1.45521 -0.0606,0.40018 -0.11022,0.0728 -0.11022,-0.72761 z m 1.31035,-2.51354 c 0.003,-0.58208 0.0571,-0.78905 0.12041,-0.45993 0.0633,0.32911 0.0609,0.80536 -0.005,1.05833 -0.0662,0.25296 -0.118,-0.0163 -0.11507,-0.5984 z m -1.33806,-0.52917 c 0.005,-0.43656 0.0647,-0.58312 0.13178,-0.32569 0.0671,0.25743 0.0627,0.61462 -0.01,0.79375 -0.0725,0.17913 -0.12736,-0.0315 -0.12197,-0.46806 z m -7.75824,-23.34947 c -0.32911,-0.41965 -0.31975,-0.42901 0.0999,-0.0999 0.25466,0.19972 0.46302,0.40808 0.46302,0.46302 0,0.21776 -0.21727,0.0776 -0.56291,-0.36312 z m -14.84907,-3.42787 c 0.32742,-0.0631 0.86321,-0.0631 1.19063,0 0.32742,0.0631 0.0595,0.11466 -0.59532,0.11466 -0.65484,0 -0.92273,-0.0516 -0.59531,-0.11466 z m 0.28112,-2.11069 c 0.191,-0.0764 0.4192,-0.067 0.50712,0.0209 0.0879,0.0879 -0.0683,0.15045 -0.34727,0.13897 -0.30822,-0.0127 -0.37091,-0.0754 -0.15985,-0.15986 z m -56.99134,-2.88464 c -1.04817,-1.79228 -3.48617,-4.50681 -5.12894,-5.71068 l -0.91884,-0.67336 0.7235,-2.08831 c 0.88458,-2.55328 0.9612,-5.01266 0.21714,-6.97084 l -0.50017,-1.31634 0.96319,0.49177 c 1.22064,0.62322 4.76928,3.16524 6.58949,4.72029 2.53854,2.16875 4.71833,5.52795 5.30846,8.18068 l 0.24658,1.10844 -1.0516,0.42077 c -1.11031,0.44426 -3.22594,1.78405 -4.60193,2.91434 l -0.8222,0.67538 z m 27.61837,0.58958 c -1.27614,-1.1282 -3.17773,-2.15142 -5.56489,-2.9944 -3.03441,-1.07155 -10.69288,-1.18178 -13.27463,-0.19107 -0.3199,0.12275 -1.29231,-2.72605 -1.58979,-4.65748 -0.39661,-2.57511 -0.69746,-7.36488 -0.69865,-11.12312 -0.002,-6.15807 0.8575,-9.10309 3.85755,-13.21854 1.50652,-2.06664 8.13202,-8.65897 8.27411,-8.23269 0.0552,0.16551 -0.0291,1.71912 -0.18728,3.45245 -0.78788,8.63393 0.14532,16.56036 2.52525,21.44899 0.75958,1.56025 1.46105,2.46504 3.28203,4.23333 2.60242,2.5271 3.1567,3.42156 3.24002,5.22849 0.0421,0.91241 0.16588,1.2538 0.45469,1.2538 0.27946,0 0.42138,-0.3414 0.47968,-1.1539 0.11253,-1.56831 -0.95314,-3.70759 -2.46338,-4.94512 l -1.15391,-0.94555 0.5081,-0.86117 c 0.88245,-1.49564 1.58774,-3.92913 1.75376,-6.05103 0.0882,-1.12778 0.24556,-2.05052 0.3496,-2.05052 0.34072,0 2.51202,2.47769 3.67804,4.19703 1.46548,2.16092 2.50552,4.46725 3.18589,7.06482 0.80389,3.06916 0.77408,3.20995 -1.06232,5.01831 -0.88205,0.86857 -2.15298,2.44242 -2.82431,3.49745 -0.67132,1.05502 -1.34864,1.91327 -1.50514,1.90721 -0.1565,-0.006 -0.72549,-0.40084 -1.26442,-0.87729 z M 205.441,141.89369 c -0.32911,-0.41964 -0.31975,-0.429 0.0999,-0.0999 0.44073,0.34564 0.58089,0.56291 0.36313,0.56291 -0.0549,0 -0.26331,-0.20836 -0.46302,-0.46302 z"
         id="path10" /><path
         id="path8"
         style="fill:#212529;fill-opacity:1;fill-rule:nonzero"
         d="m 265.25188,113.99947 c -3.02704,0.002 -6.0735,0.10342 -8.18348,0.30489 -6.92728,0.66163 -17.65773,3.37317 -23.21253,5.86735 l -1.38442,0.62115 5.83996,13.09687 c 3.21188,7.20145 5.93895,13.20096 6.06009,13.32787 0.37254,0.39028 1.31982,-3.21153 1.31982,-5.0183 0,-1.0248 -0.19937,-2.21482 -0.50746,-3.02565 l -0.50798,-1.33636 1.21646,0.68007 c 2.26826,1.26769 5.45251,3.69892 7.45846,5.69474 2.06113,2.04895 3.40792,4.19461 3.98684,6.34638 0.17618,0.65485 0.36177,1.33777 0.41237,1.51722 0.0506,0.17913 0.27541,0.25592 0.4992,0.17002 0.49592,-0.19031 0.50732,0.0189 -0.10956,-1.99006 -0.6034,-1.96351 -0.94472,-4.61031 -1.32653,-10.28051 -0.57941,-8.60297 0.49499,-12.75474 4.63589,-17.93069 1.6135,-2.01662 7.25544,-7.5633 7.47242,-7.34632 0.0548,0.0548 -0.0464,1.92684 -0.2248,4.15582 -0.73064,9.13358 0.49888,17.56546 3.21893,22.06222 0.49248,0.81448 1.80288,2.30073 2.91145,3.30264 2.23249,2.01762 2.93251,3.19185 2.98121,4.99814 0.0238,0.88232 0.13985,1.20923 0.4284,1.20923 0.30631,0 0.38957,-0.32866 0.36897,-1.45779 -0.0327,-1.79371 -0.58535,-2.91124 -2.20038,-4.44469 l -1.23559,-1.17357 0.76223,-1.60042 c 0.84187,-1.76576 1.49782,-4.47266 1.50482,-6.20634 0.003,-0.61846 0.11196,-1.12448 0.24288,-1.12448 0.36485,0 2.7336,2.68186 3.83646,4.3434 1.27609,1.9226 2.23718,4.03552 2.9533,6.50451 l 0.57723,1.98438 0.93224,-1.98438 c 0.51286,-1.09135 1.58516,-3.3536 2.3828,-5.02708 0.79763,-1.67349 2.10241,-4.41193 2.89957,-6.08542 0.79716,-1.67343 2.5486,-5.34842 3.89175,-8.16642 1.4079,-2.95209 2.34302,-5.2219 2.20865,-5.35626 -0.38135,-0.38136 -5.53891,-2.32105 -8.80773,-3.31246 -3.92381,-1.19006 -11.17077,-2.6318 -15.21354,-3.02359 -2.04667,-0.1992 -5.05959,-0.29779 -8.0884,-0.29611 z m 34.30488,7.50394 v 5.1e-4 c -0.0304,0.0461 -0.84422,2.04745 -1.80867,4.44831 -0.96455,2.40109 -3.24033,8.03656 -5.05757,12.52275 -2.33143,5.75387 -3.17336,8.10557 -2.86029,7.98349 3.02668,-1.18106 8.3178,-1.43554 11.42359,-0.54983 2.40076,0.68465 4.68281,1.79326 6.6089,3.21117 0.90356,0.66516 1.89951,1.30664 2.2133,1.42524 v 5.1e-4 c 0.3138,0.11825 0.7491,0.10526 0.96738,-0.002 0.29571,-0.16189 7.71551,-7.04805 12.55221,-11.64942 0.57324,-0.54535 -7.95717,-7.74914 -13.59607,-11.48406 -2.98131,-1.97398 -10.3041,-6.11588 -10.44278,-5.90661 z m -68.85936,0.22066 c -0.17647,-0.18516 -4.16605,1.90151 -7.72201,4.03903 -5.05714,3.04093 -12.10144,8.54469 -15.75149,12.30932 l -1.29295,1.33377 3.14503,2.99568 c 1.72999,1.64758 3.97899,3.78721 4.99763,4.75475 1.01865,0.96755 2.66589,2.18854 3.66024,2.71301 0.99435,0.52453 1.9693,0.95343 2.16679,0.95343 0.19755,0 1.33175,-0.66601 2.52026,-1.48001 2.89137,-1.98138 4.89348,-2.89022 7.86619,-3.57756 2.78561,-0.64369 6.2716,-0.59313 8.59121,0.12041 0.69123,0.21314 1.25677,0.29711 1.25677,0.18655 0,-0.25263 -9.27263,-24.1752 -9.43767,-24.34838 z m 94.48726,18.45572 -3.79409,3.99872 -3.79356,3.99872 h 1.45779 c 1.70213,0 4.59492,0.83059 6.23941,1.79162 3.78985,2.21476 6.60144,6.82599 7.58145,12.43387 0.36923,2.11111 0.36276,2.22686 -0.1943,3.37344 -0.31709,0.65267 -0.64234,1.18112 -0.72244,1.17512 -0.0802,-0.006 -0.80062,-1.10009 -1.60093,-2.43086 -1.79224,-2.97997 -5.67413,-7.03644 -8.4243,-8.80256 -10.19272,-6.54521 -23.05877,-6.13437 -37.51657,1.19786 l -3.02876,1.53634 -0.67231,-1.01648 c -0.64018,-0.96737 -1.34476,-1.48659 -1.62987,-1.20148 -0.0723,0.0723 0.30351,0.611 0.83147,1.19735 0.52973,0.58635 0.9616,1.15528 0.9586,1.264 -0.003,0.10873 -0.80644,0.67366 -1.78284,1.25574 -2.26954,1.34882 -8.41219,5.73394 -10.64534,7.59644 l -1.71721,1.43195 -3.17758,-2.56315 c -9.31125,-7.5103 -19.31181,-12.63434 -28.44529,-14.57534 -3.65794,-0.77721 -10.93554,-0.86291 -14.0746,-0.16536 -8.93563,1.98596 -16.37653,8.29852 -20.19876,17.139 -0.40907,0.94589 -0.83789,1.82854 -0.95292,1.96164 -0.11502,0.13309 -0.57022,-0.52175 -1.01182,-1.45521 -0.57731,-1.22034 -0.8029,-2.08837 -0.80305,-3.08973 -1.2e-4,-0.76596 -0.13464,-1.60749 -0.29869,-1.87017 -0.22679,-0.36316 -0.19018,-1.01213 0.15296,-2.70837 1.44117,-7.12231 5.91476,-12.17851 11.7569,-13.28911 l 1.56787,-0.29817 -3.34399,-3.54655 -3.34398,-3.54656 -1.00821,1.15497 c -5.07227,5.8104 -10.76087,15.10455 -13.70148,22.3883 -0.94994,2.34975 -0.91327,2.59185 0.43925,2.86236 0.62662,0.12533 0.98389,0.009 1.62367,-0.52969 1.03648,-0.87213 2.81043,-1.66195 4.24832,-1.89187 1.09634,-0.17531 1.11311,-0.16619 1.11311,0.60151 0,1.22581 0.69927,3.27054 1.60972,4.70411 l 0.83406,1.31516 -0.42323,1.19838 c -0.97195,2.74842 -2.04141,9.11594 -1.97921,11.78171 0.017,0.72756 0.0769,1.02526 0.13333,0.66146 0.69552,-4.48213 1.06515,-6.15327 1.95285,-8.816 3.59316,-10.78352 10.69661,-17.81101 20.84472,-20.61683 1.72794,-0.47798 2.7806,-0.56414 7.05797,-0.57774 5.64829,-0.0179 8.37651,0.41079 13.62604,2.13527 6.36192,2.09195 15.96639,7.6028 22.70456,13.02969 1.64603,1.32577 3.03751,2.41019 3.09231,2.41019 0.0548,0 1.41485,-1.05503 3.02204,-2.34094 7.47827,-5.99158 15.92197,-10.78836 23.32416,-13.24777 4.53822,-1.50857 7.74883,-1.99991 13.07672,-2.00091 5.57918,-0.001 7.85899,0.45485 11.9724,2.38435 3.46346,1.62698 5.73657,3.23367 8.3168,5.88801 4.94796,5.08483 7.63503,10.67275 9.23716,19.20916 l 0.50282,2.67581 -0.11111,-2.38125 c -0.14761,-3.16735 -1.24982,-8.48938 -2.42156,-11.69283 -0.52022,-1.42709 -1.01409,-2.80934 -1.09399,-3.07164 -0.10922,-0.35858 0.80991,-2.54908 1.387,-3.30523 0.0328,-0.0429 0.64159,0.0625 1.34875,0.2341 1.33989,0.32439 2.75446,1.04111 3.67937,1.86396 0.46471,0.41346 0.67471,0.43718 1.53168,0.17415 0.73834,-0.22659 0.95066,-0.41147 0.82786,-0.72036 -0.0908,-0.22854 -0.40717,-1.05529 -0.7028,-1.8371 -1.16452,-3.07782 -5.12836,-10.53766 -7.43572,-13.99036 -1.95715,-2.9271 -4.33987,-6.06233 -6.61562,-8.77828 -0.0516,-0.0527 -0.10196,-0.10702 -0.14572,-0.1664 -0.0112,-0.0152 -0.0213,-0.031 -0.032,-0.0465 -0.008,-0.0123 -0.0149,-0.0245 -0.0227,-0.0367 -0.14019,-0.16611 -0.28466,-0.36493 -0.42375,-0.52709 z m -18.25057,17.66559 c -2.46189,5.8e-4 -5.02753,0.20648 -6.9603,0.61753 -5.35334,1.13714 -11.19271,3.31852 -17.50539,6.53603 -7.12349,3.63176 -8.67257,4.85976 -7.66051,6.07922 0.55578,0.6679 1.31475,0.42396 4.12119,-1.33894 3.84165,-2.41154 11.04488,-5.95972 14.65182,-7.21506 4.81305,-1.67663 5.51421,-1.8754 8.59896,-2.43448 8.60207,-1.55936 15.16524,0.33297 20.39617,5.8782 6.44459,6.83155 8.38519,16.27703 6.59288,32.08331 -0.36298,3.19969 -0.66064,5.96966 -0.66146,6.15156 v 5.2e-4 c -0.003,0.7075 0.5114,0.28331 0.63924,-0.52917 1.13449,-7.20821 1.41087,-9.65274 1.64073,-14.48594 0.36984,-7.77496 -1.05574,-15.07272 -3.88194,-19.86597 -3.20101,-5.4302 -8.18691,-9.40899 -13.61312,-10.86238 -1.5314,-0.41036 -3.89461,-0.61501 -6.35827,-0.61443 z m 34.93895,10.96935 c -0.69079,2.9e-4 -0.65704,0.45383 0.14367,1.93218 2.20733,4.07877 1.91945,9.89861 -0.77463,15.64969 l -1.03973,2.21847 0.67489,0.16899 c 1.81748,0.4561 4.29294,2.94383 5.26273,5.28856 0.26494,0.64055 0.49811,1.14333 0.51831,1.11673 0.0651,-0.0855 -0.0667,-1.9259 -0.17208,-3.5109 -0.003,-0.0196 -0.006,-0.0392 -0.009,-0.0589 -0.0103,-0.088 -0.0172,-0.17618 -0.0222,-0.26458 -0.007,-0.13067 -0.009,-0.26163 -0.0165,-0.39223 -0.0101,-0.19009 -0.0205,-0.38038 -0.0295,-0.5705 -0.008,-0.1193 -0.016,-0.23919 -0.0367,-0.35709 -0.0114,-0.0648 -0.008,-0.11906 0.006,-0.16226 -0.20121,-2.46163 -0.45953,-5.16691 -0.6594,-6.47093 -1.03436,-6.74728 -3.10102,-14.58722 -3.84576,-14.58722 z m -153.7224,0.30644 c -0.0475,0.0497 -0.45383,1.28106 -0.90278,2.73627 -1.84304,5.97208 -3.08686,13.34717 -3.34812,19.84375 l -0.15968,3.96875 0.93483,-1.87224 c 1.0255,-2.05362 2.92886,-4.04702 4.5806,-4.79815 0.55328,-0.25161 1.03665,-0.4721 1.07435,-0.4899 0.0377,-0.0178 -0.39942,-1.03322 -0.97152,-2.25671 -2.66885,-5.70969 -2.92269,-11.18029 -0.71675,-15.57217 0.64776,-1.28789 0.64991,-1.31511 0.12713,-1.48105 -0.29258,-0.0928 -0.57056,-0.11915 -0.61806,-0.0786 z m 79.10422,28.69644 c -9.0946,0.006 -12.82372,0.3831 -21.56354,2.17971 -3.01868,0.62043 -12.72912,3.40152 -13.07104,3.74345 -0.48881,0.48875 3.02941,5.31495 6.18567,8.48682 6.60221,6.63482 15.84153,10.98155 25.27391,11.89178 9.30517,0.89796 19.788,-2.64111 27.91354,-9.42217 4.43518,-3.70139 10.06335,-10.27704 9.36894,-10.9461 -0.55118,-0.53107 -8.18255,-2.84949 -12.14706,-3.69125 -8.2691,-1.75532 -13.10173,-2.24824 -21.96042,-2.24224 z m -83.26985,4.20233 0.18293,1.5875 c 0.35361,3.06466 1.51549,9.53807 2.16059,12.03131 0.96045,3.72143 3.01733,9.52352 4.25401,12.26281 0.21451,0.21411 0.33274,0.45601 0.36173,0.69299 0.14837,0.28021 0.35409,0.76232 0.44804,0.85627 0.13012,0.13012 2.23104,-0.70195 4.84105,-1.91719 4.95585,-2.30655 9.19793,-4.21473 9.37462,-4.21473 0.29446,0 1.4953,2.44351 1.29139,2.62774 -0.12861,0.11619 -3.32972,1.37332 -7.11326,2.79363 -3.78177,1.42031 -7.02688,2.66126 -7.20783,2.75746 -0.6802,0.36171 5.04268,9.68889 8.91625,14.53606 2.38067,2.97589 6.16205,7.14914 7.25382,8.0021 l 0.76068,0.59376 2.02262,-2.09548 c 1.11269,-1.15248 3.71115,-3.88319 5.7738,-6.06423 l 3.75016,-3.96875 1.09244,1.08159 1.09193,1.08107 -1.80506,1.71669 c -0.99274,0.94431 -3.71012,3.49408 -6.03839,5.6658 -2.32833,2.17179 -4.23334,4.01843 -4.23334,4.10363 0,0.43191 6.70395,5.548 10.45105,7.97574 2.68003,1.73581 8.0276,4.5787 11.00553,5.84926 l 2.14147,0.91363 2.46238,-6.52053 c 1.35424,-3.5864 2.53394,-6.6048 2.62154,-6.70708 0.0876,-0.10228 0.72759,0.16767 1.42214,0.59996 1.03656,0.6452 1.21828,0.86904 1.01492,1.24902 -0.3231,0.60373 -5.58673,12.01367 -5.58673,12.11037 0,0.094 4.29916,1.50035 6.81198,2.22932 2.86005,0.8291 9.08827,2.03219 12.23802,2.3642 1.52791,0.16106 3.13531,0.33331 3.57187,0.38241 0.43483,0.0489 1.88581,0.10615 3.22616,0.12815 0.0157,0 0.0313,10e-6 0.047,0 0.17038,-1e-4 0.34071,-1.4e-4 0.51108,-5.1e-4 0.1751,-3.7e-4 0.35051,-10e-4 0.52554,-5.2e-4 0.17423,0.002 0.34813,0.01 0.52194,0.0222 0.0249,0.002 0.0499,0.004 0.0749,0.007 l 0.77773,0.0124 -0.1695,-3.15226 -0.1695,-3.15278 0.95705,0.0894 c 0.52654,0.0489 1.0799,0.16465 1.2299,0.25735 0.16072,0.0993 0.27285,1.37274 0.27285,3.10162 v 2.93367 l 2.84427,-0.1819 c 6.73985,-0.43153 13.64167,-1.73667 20.0272,-3.7822 2.04557,-0.65509 3.81222,-1.27882 3.92586,-1.38596 0.11365,-0.10715 -0.92069,-2.68474 -2.29857,-5.72885 l -2.50527,-5.53558 0.57877,-0.45062 c 0.88928,-0.69267 1.75163,-1.11021 1.9296,-0.93224 0.0885,0.0885 1.11197,2.75937 2.27428,5.93142 1.1623,3.17378 2.14582,5.80507 2.18592,5.84667 0.13977,0.14506 4.26632,-1.78113 7.55044,-3.52123 1.81902,-0.96481 4.76153,-2.72823 6.53448,-3.91759 3.12343,-2.09324 9.57558,-7.03014 9.59528,-7.34219 0.005,-0.0844 -2.37325,-2.38519 -5.28184,-5.11235 -2.91042,-2.72538 -5.29167,-5.04545 -5.29167,-5.15214 0,-0.10669 0.39757,-0.57994 0.88315,-1.05058 l 0.88263,-0.85473 2.25051,2.32544 c 1.23788,1.27884 3.54949,3.72397 5.13664,5.43481 l 2.88561,3.11144 0.416,-0.42995 c 0.007,-0.0121 0.0148,-0.0251 0.0222,-0.0372 0.0436,-0.0649 0.097,-0.122 0.14882,-0.18035 0.007,-0.0145 0.0148,-0.0283 0.0243,-0.0434 0.0624,-0.0995 0.13007,-0.19484 0.20567,-0.28474 0.0585,-0.0679 0.0789,-0.094 0.14315,-0.15864 0.10108,-0.10187 0.2124,-0.19207 0.32349,-0.28267 0.11108,-0.0931 0.22124,-0.18727 0.32763,-0.28577 0.0736,-0.0663 0.14901,-0.13115 0.22531,-0.19431 l 0.42116,-0.43459 c 5.31739,-5.49093 9.76399,-11.58293 13.5692,-18.59474 l 1.23197,-2.26962 -5.6193,-2.2071 c -3.08857,-1.21396 -5.94557,-2.36807 -6.34535,-2.56522 l -0.72708,-0.35915 0.69608,-1.11777 c 0.38298,-0.6149 0.73291,-1.16052 0.77721,-1.21232 0.0443,-0.0518 2.72169,1.16863 5.94951,2.71197 3.22783,1.54337 5.9215,2.80603 5.9862,2.80603 0.2629,0 1.96006,-4.07103 3.2029,-7.68066 1.90591,-5.53821 3.23567,-11.42636 3.884,-17.18965 l 0.16382,-1.45573 -0.87023,1.5875 c -0.47869,0.87313 -1.764,2.48371 -2.85616,3.5786 -1.5788,1.58094 -2.52815,2.26464 -4.63176,3.32899 -1.45521,0.73628 -3.4248,1.54808 -4.37699,1.80403 l -1.73116,0.46612 -1.69964,3.59048 c -0.93483,1.97306 -1.90005,3.77923 -2.14457,4.01009 -0.24453,0.23086 -1.56263,2.0865 -2.92902,4.12378 -3.40764,5.08053 -6.50437,8.81521 -11.18899,13.49995 -8.93963,8.93648 -20.11226,16.73716 -33.74109,23.55618 -5.16943,2.58771 -6.72759,3.28565 -10.96109,4.91495 -1.67936,0.64607 -2.73299,0.92271 -2.92075,0.76688 -0.16154,-0.13406 -1.24189,-0.59798 -2.40037,-1.02681 -5.84434,-2.17291 -17.37321,-7.89448 -22.76657,-11.29647 -9.07295,-5.72719 -15.79116,-10.99859 -22.20639,-17.43356 -7.37408,-7.39293 -12.22413,-14.05132 -15.63057,-21.46019 -0.93957,-2.04067 -1.42444,-2.8086 -1.81901,-2.8758 -6.57143,-1.11854 -10.02599,-2.71588 -13.59504,-6.28488 -1.10587,-1.10587 -2.0002,-2.34575 -2.72438,-3.77703 z m 63.29381,1.71979 h 3.51296 3.51297 l 0.77566,1.77974 c 1.41111,3.23907 4.60875,5.80232 8.50491,6.81715 1.77188,0.46151 5.04696,0.52035 6.57996,0.11834 1.86735,-0.48968 1.84089,-0.46994 1.36219,-0.9989 -1.07945,-1.19278 -0.72909,-3.44553 0.64647,-4.15686 1.33677,-0.69128 2.32975,-0.49941 3.437,0.66456 l 0.99787,1.04955 0.84801,-0.96583 c 0.83706,-0.95336 2.09358,-3.33464 2.09858,-3.97702 0.002,-0.24883 0.92718,-0.33073 3.73672,-0.33073 h 3.73414 l -0.1757,1.25677 c -0.57349,4.10251 -3.08027,8.39171 -6.4735,11.08821 -1.81266,1.43973 -5.11397,3.06015 -7.6786,3.77135 -1.90163,0.52697 -6.05587,0.86206 -8.08943,0.65216 -3.03827,-0.31361 -7.32728,-1.92795 -9.98854,-3.75895 -1.96288,-1.35049 -4.56974,-4.3459 -5.60379,-6.4394 -1.04726,-2.12018 -1.72978,-4.3673 -1.73478,-5.71024 z m 23.68692,1.74925 c 0.13017,0.007 0.24489,0.0635 0.34985,0.16846 0.43743,0.43742 0.37582,1.17332 -0.11368,1.36116 -0.53286,0.20447 -0.48007,0.21445 -0.85111,-0.15658 -0.45795,-0.45795 -0.39085,-0.94775 0.17104,-1.2485 0.16809,-0.09 0.31378,-0.13169 0.4439,-0.12454 z" /></g><path
       style="fill:#212529;fill-opacity:1;fill-rule:nonzero;stroke-width:1.41421"
       d="m 1053.6146,544.25401 c -1.8707,-5.49489 -5.2684,-12.94398 -7.5504,-16.55352 -5.1614,-8.16429 -14.9617,-19.99782 -16.5618,-19.99782 -0.6577,0 -1.5992,3.02288 -2.0923,6.71751 -0.493,3.69463 -2.6406,11.95716 -4.7724,18.36116 l -3.876,11.64365 -5.0638,-5.27969 c -11.6526,-12.14953 -16.67333,-29.73748 -17.71497,-62.05715 -0.4048,-12.55999 -0.28263,-27.6744 0.27148,-33.58758 l 1.00747,-10.75122 6.59682,2.8e-4 c 15.8095,6.6e-4 59.7973,9.17855 80.136,16.72006 19.885,7.37329 19.1558,6.81444 16.6852,12.78767 -1.9757,4.77635 -42.8091,91.05479 -43.3981,91.69731 -0.1462,0.15954 -1.7965,-4.20576 -3.6672,-9.70066 z"
       id="path1537"
       transform="scale(0.26458333)" /><path
       style="fill:#212529;fill-opacity:1;fill-rule:nonzero;stroke-width:1.41421"
       d="m 1145.513,564.81108 c -7.1822,-5.17152 -19.6227,-11.31627 -26.8515,-13.2628 -7.1775,-1.9327 -29.2661,-2.02151 -37.1417,-0.14934 -3.308,0.78637 -5.3033,0.75223 -5.3033,-0.0907 0,-0.74328 8.0748,-21.38123 17.944,-45.86211 14.379,-35.66741 18.3828,-44.34652 20.1526,-43.68444 1.2147,0.45443 10.0679,5.4086 19.6739,11.00926 20.2576,11.81098 41.767,27.59473 57.0318,41.85031 l 10.7303,10.02093 -12.2082,11.73047 c -25.5153,24.51694 -34.2153,32.13903 -36.6076,32.07188 -1.3588,-0.0381 -4.698,-1.67318 -7.4203,-3.63342 z"
       id="path1538"
       transform="scale(0.26458333)" /><path
       style="fill:#212529;fill-opacity:1;fill-rule:nonzero;stroke-width:0.353553"
       d="m 989.1457,1036.1884 c -0.0949,-5.8887 -0.28934,-11.0635 -0.43203,-11.4996 -0.17006,-0.5196 -0.70227,-0.9098 -1.54474,-1.1323 -1.27315,-0.3364 -7.20148,-1.0571 -7.39758,-0.8994 -0.056,0.045 0.18524,5.4284 0.53616,11.9628 l 0.63804,11.8809 -6.01625,-0.1722 c -13.24566,-0.3791 -15.92544,-0.5482 -25.07645,-1.5825 -18.04626,-2.0396 -39.67662,-6.2332 -53.06468,-10.2877 -6.06078,-1.8355 -19.76623,-6.2737 -21.11836,-6.8386 l -1.28925,-0.5387 1.96574,-4.3353 c 4.1933,-9.248 16.87673,-36.63135 18.02984,-38.92616 1.63548,-3.25482 1.52006,-4.23613 -0.69464,-5.90605 -1.65964,-1.25139 -5.30642,-3.20137 -6.88328,-3.68058 -0.68977,-0.20963 -0.88587,-0.036 -1.45088,1.2847 -1.17297,2.74175 -6.99011,17.83101 -12.87201,33.38909 l -5.76354,15.2451 -7.0589,-3.0751 c -16.53377,-7.2026 -35.86528,-17.804 -48.87563,-26.80326 -11.12262,-7.69355 -29.98902,-22.13348 -32.40195,-24.79973 -0.67589,-0.74686 -0.67332,-0.7507 2.65317,-3.95834 1.83134,-1.76591 10.88692,-10.31495 20.1235,-18.99785 9.23658,-8.68291 18.06658,-17.01221 19.62221,-18.50956 l 2.82843,-2.72246 -4.0601,-4.08405 c -2.23305,-2.24623 -4.23848,-4.08406 -4.45652,-4.08406 -0.21803,0 -1.24734,0.91482 -2.28736,2.03293 -4.53182,4.87213 -31.58186,33.34211 -38.11582,40.11664 l -3.31348,3.43548 -2.52118,-2.06129 c -5.24873,-4.29129 -20.08341,-20.73949 -28.8909,-32.03327 -12.82576,-16.44637 -32.03767,-47.28161 -32.26323,-51.78269 -0.0681,-1.35938 -1.9304,-0.54486 21.86339,-9.56262 19.00773,-7.20386 29.68226,-11.36268 31.26302,-12.18012 0.93531,-0.48366 1.06227,-0.70642 0.87058,-1.5274 -0.34936,-1.49622 -2.882,-6.79542 -3.86146,-8.07956 -0.86548,-1.1347 -0.9049,-1.14699 -2.20233,-0.68709 -1.79394,0.63591 -12.10799,5.26537 -27.89362,12.52005 -13.25333,6.09091 -21.68124,9.69462 -23.63204,10.10489 -1.06024,0.22298 -1.06159,0.22114 -3.46511,-4.72482 -5.08593,-10.46585 -13.4496,-34.3933 -16.99895,-48.63194 -1.57991,-6.33797 -4.26681,-20.39559 -6.08187,-31.81981 -1.04933,-6.6046 -2.30909,-16.1641 -2.15096,-16.32223 0.0603,-0.0603 1.19382,1.9966 2.51903,4.5708 3.39471,6.59421 6.34664,10.91357 10.30011,15.07146 12.81886,13.48169 27.03908,20.39805 50.28552,24.4576 2.33683,0.40809 2.70468,0.58831 3.79091,1.85732 0.66162,0.77296 2.25519,3.5695 3.54127,6.21454 8.13541,16.7319 11.89247,23.50307 19.04885,34.33086 18.60046,28.14298 48.55858,59.52405 80.80934,84.6476 15.96295,12.43525 38.1322,27.52675 53.38656,36.34238 21.00495,12.13895 54.26306,28.3977 73.89266,36.1236 3.79186,1.4924 8.35441,3.3603 10.13902,4.151 2.56735,1.1373 3.48996,1.3888 4.41942,1.2043 3.64481,-0.7235 17.55583,-5.9805 27.79773,-10.5048 11.6873,-5.16276 33.6198,-16.28312 48.3303,-24.50474 36.4922,-20.39534 70.0827,-44.65998 94.7419,-68.43853 2.5336,-2.44312 5.2126,-4.98309 5.9534,-5.64438 1.9031,-1.69894 15.8189,-16.43858 19.5174,-20.67274 8.0073,-9.16714 14.3866,-17.56676 24.6803,-32.49644 3.8811,-5.62902 8.2244,-11.80376 9.6517,-13.72164 2.5618,-3.44218 7.3647,-12.55056 13.2325,-25.0943 l 2.2661,-4.84435 2.8364,-0.7386 c 11.1485,-2.90319 24.8745,-9.44271 32.234,-15.35743 6.1009,-4.90317 13.8796,-14.06125 17.2951,-20.3619 0.9395,-1.73307 1.7453,-3.1139 1.7907,-3.06852 0.1807,0.18077 -1.7081,14.23797 -2.7098,20.1671 -2.8751,17.01759 -7.5199,35.04186 -13.1206,50.915 -4.3261,12.26059 -10.3995,26.74663 -11.2137,26.74663 -0.4008,0 -6.8179,-2.97342 -22.5001,-10.42568 -13.0804,-6.21591 -21.6246,-10.08041 -22.2872,-10.08041 -0.5164,0 -1.463,1.28622 -4.3547,5.91771 l -1.8185,2.91251 2.3862,1.19558 c 2.311,1.15792 17.2618,7.18752 35.797,14.43683 4.9586,1.93936 9.1551,3.66051 9.3256,3.82478 0.4659,0.4489 -7.5816,15.05499 -14.0237,25.4527 -12.6709,20.45136 -26.7534,38.33234 -43.6557,55.43093 l -6.166,6.23759 -1.4663,-1.58362 c -7.6127,-8.22144 -27.446,-29.25205 -31.824,-33.74517 l -5.512,-5.65685 -3.3668,3.45378 c -1.8517,1.89959 -3.3667,3.65134 -3.3667,3.89278 0,0.50916 9.7147,10.18516 18.9151,18.83963 3.5001,3.29251 9.6683,9.15257 13.7071,13.02235 7.1714,6.87141 7.3285,7.05238 6.7175,7.73715 -1.9329,2.16622 -22.1099,17.60229 -32.0919,24.55131 -5.6741,3.95007 -13.9994,9.15834 -21.9203,13.71324 -10.5657,6.0758 -33.5531,17.1807 -34.4355,16.6353 -0.1711,-0.1057 -2.099,-5.0064 -4.2843,-10.8905 -12.7285,-34.27313 -12.4171,-33.50262 -13.5409,-33.50262 -1.1066,0 -3.735,1.41335 -6.6739,3.58865 l -2.3661,1.75131 0.6487,1.48427 c 0.3569,0.81635 2.9874,6.65499 5.8458,12.97476 7.7084,17.04333 12.1534,27.74463 11.7089,28.18913 -0.3053,0.3054 -13.4932,4.7465 -19.6584,6.6202 -23.6521,7.1882 -50.351,11.8128 -75.66046,13.1053 -2.43068,0.1241 -4.68076,0.2977 -5.00018,0.3857 -0.52669,0.1451 -0.59684,-0.8369 -0.75336,-10.5467 z"
       id="path1540"
       transform="scale(0.26458333)" /></g></svg>
